<svg id="Beach_Umbrella" data-name="Beach, Umbrella" xmlns="http://www.w3.org/2000/svg" width="40" height="40" viewBox="0 0 40 40">
  <g id="Group_13" data-name="Group 13" transform="translate(6.667 5)">
    <path id="Path_14" data-name="Path 14" d="M30.667,21H4" transform="translate(-4 9)" fill="none" stroke="#0b3954" stroke-linecap="round" stroke-linejoin="round" stroke-width="2"/>
    <path id="Path_15" data-name="Path 15" d="M22.175,4.11h0a13.931,13.931,0,0,1,7.957,16.637l-.125.442a3.325,3.325,0,0,1-4.5,2.152L6.028,15.07a3.326,3.326,0,0,1-1.577-4.732l.23-.4A13.932,13.932,0,0,1,22.175,4.11Z" transform="translate(-4 -3)" fill="none" stroke="#0b3954" stroke-linecap="round" stroke-linejoin="round" stroke-width="2"/>
    <path id="Path_16" data-name="Path 16" d="M15.958,3.666l.432,1.745a17.753,17.753,0,0,1-3.065,14.952h0" transform="translate(2.217 -2.556)" fill="none" stroke="#0b3954" stroke-linecap="round" stroke-linejoin="round" stroke-width="2"/>
    <path id="Path_17" data-name="Path 17" d="M18.978,3.666l-1.555.9A17.756,17.756,0,0,0,8.8,17.159h0" transform="translate(-0.803 -2.556)" fill="none" stroke="#0b3954" stroke-linecap="round" stroke-linejoin="round" stroke-width="2"/>
    <path id="Path_18" data-name="Path 18" d="M13.4,12.72,7.55,26.52" transform="translate(-1.633 3.48)" fill="none" stroke="#0b3954" stroke-linecap="round" stroke-linejoin="round" stroke-width="2"/>
  </g>
  <path id="Path_19" data-name="Path 19" d="M0,0H40V40H0Z" fill="none"/>
</svg>
