<svg id="Pen_Edit.1" data-name="Pen, Edit.1" xmlns="http://www.w3.org/2000/svg" width="20" height="20" viewBox="0 0 20 20">
  <path id="Path_380" data-name="Path 380" d="M0,0H20V20H0Z" fill="none" fill-rule="evenodd"/>
  <path id="Path_381" data-name="Path 381" d="M18,11.556v4.921a1.684,1.684,0,0,1-1.678,1.69H4.677A1.684,1.684,0,0,1,3,16.477V5.69A1.684,1.684,0,0,1,4.677,4H10.5" transform="translate(-0.5 -0.667)" fill="none" stroke="#ddd" stroke-linecap="round" stroke-linejoin="round" stroke-width="1.5"/>
  <g id="Group_38" data-name="Group 38" transform="translate(6.523 3.334)">
    <path id="Path_382" data-name="Path 382" d="M7.828,14.977l3.109-.778a.839.839,0,0,0,.387-.219l6.992-6.992a1.666,1.666,0,0,0,0-2.357l-.143-.143a1.666,1.666,0,0,0-2.357,0L8.825,11.48a.835.835,0,0,0-.219.388l-.778,3.109" transform="translate(-7.828 -4)" fill="none" stroke="#ddd" stroke-linecap="round" stroke-linejoin="round" stroke-width="1.5"/>
    <path id="Path_383" data-name="Path 383" d="M15.83,6.17l2.5,2.5" transform="translate(-9.162 -4.362)" fill="none" stroke="#ddd" stroke-linecap="round" stroke-linejoin="round" stroke-width="1.5"/>
    <path id="Path_384" data-name="Path 384" d="M11.081,15.772a2.02,2.02,0,0,0,.027-.267,2.083,2.083,0,0,0-2.083-2.083,2.17,2.17,0,0,0-.267.027" transform="translate(-7.983 -5.57)" fill="none" stroke="#ddd" stroke-linecap="round" stroke-linejoin="round" stroke-width="1.5"/>
  </g>
</svg>
