<svg id="Photo" xmlns="http://www.w3.org/2000/svg" width="20" height="20" viewBox="0 0 20 20">
  <g id="Group_48" data-name="Group 48" transform="translate(2.5 2.5)">
    <path id="Path_396" data-name="Path 396" d="M20,3V6.333" transform="translate(-5.833 -3)" fill="none" stroke="#323232" stroke-linecap="round" stroke-linejoin="round" stroke-width="1.5"/>
    <path id="Path_397" data-name="Path 397" d="M18,5h3.333" transform="translate(-5.5 -3.333)" fill="none" stroke="#323232" stroke-linecap="round" stroke-linejoin="round" stroke-width="1.5"/>
    <path id="Path_398" data-name="Path 398" d="M12.167,5h-7.5A1.666,1.666,0,0,0,3,6.667v10a1.666,1.666,0,0,0,1.667,1.667H15.5a1.666,1.666,0,0,0,1.667-1.667V10" transform="translate(-3 -3.333)" fill="none" stroke="#323232" stroke-linecap="round" stroke-linejoin="round" stroke-width="1.5"/>
    <path id="Path_399" data-name="Path 399" d="M6.941,13.739l1.253-1.988a.833.833,0,0,1,1.312-.127l.9.952.939-2a.833.833,0,0,1,1.483-.048l1.8,3.248a.834.834,0,0,1-.73,1.237H7.646a.833.833,0,0,1-.705-1.278Z" transform="translate(-3.635 -4.184)" fill="none" stroke="#323232" stroke-linecap="round" stroke-linejoin="round" stroke-width="1.5"/>
  </g>
  <path id="Path_400" data-name="Path 400" d="M0,0H20V20H0Z" fill="none"/>
</svg>
