<svg xmlns="http://www.w3.org/2000/svg" width="40" height="40" viewBox="0 0 40 40">
  <g id="Setting_Edit_Filter_Gear.1" data-name="Setting, Edit, Filter, Gear.1" transform="translate(0.057 -0.086)">
    <g id="Group_15" data-name="Group 15" transform="translate(5.679 4.339)">
      <path id="Path_23" data-name="Path 23" d="M11.594,14.247a2.265,2.265,0,1,1-3.2,0,2.265,2.265,0,0,1,3.2,0" transform="translate(-0.49 4.66)" fill="none" stroke="#000" stroke-linecap="round" stroke-linejoin="round" stroke-width="2"/>
      <path id="Path_24" data-name="Path 24" d="M15.834,9.4l1.528.51a.858.858,0,0,1,.587.813v1.465a1.531,1.531,0,0,0,1.5,1.53l1.387.03a.857.857,0,0,1,.748.473l.72,1.44a.859.859,0,0,1-.16.99L21.1,17.686a1.53,1.53,0,0,0-.023,2.14l.958,1a.853.853,0,0,1,.193.863l-.51,1.528a.858.858,0,0,1-.813.587H19.444a1.531,1.531,0,0,0-1.53,1.5l-.03,1.387a.857.857,0,0,1-.473.748l-1.44.72a.859.859,0,0,1-.99-.16l-1.035-1.037a1.53,1.53,0,0,0-2.14-.023l-1,.958a.853.853,0,0,1-.863.193l-1.528-.51a.858.858,0,0,1-.587-.813V25.3a1.531,1.531,0,0,0-1.5-1.53l-1.385-.03a.857.857,0,0,1-.748-.473l-.72-1.44a.859.859,0,0,1,.16-.99L4.672,19.8a1.53,1.53,0,0,0,.023-2.14l-.958-1a.853.853,0,0,1-.193-.863l.51-1.528a.858.858,0,0,1,.813-.587H6.332a1.531,1.531,0,0,0,1.53-1.5l.03-1.387a.857.857,0,0,1,.473-.748l1.44-.72a.859.859,0,0,1,.99.16l1.035,1.037a1.53,1.53,0,0,0,2.14.023l1-.958a.856.856,0,0,1,.862-.193Z" transform="translate(-3.385 1.764)" fill="none" stroke="#000" stroke-linecap="round" stroke-linejoin="round" stroke-width="2"/>
      <path id="Path_25" data-name="Path 25" d="M21.108,15.588l1.327-.357a.708.708,0,0,0,.515-.57l.252-1.548a1.058,1.058,0,0,1,.873-.873l1.547-.252a.708.708,0,0,0,.57-.515l.357-1.327a.707.707,0,0,0-.237-.732L25.1,8.422a1.06,1.06,0,0,1-.32-1.193l.558-1.47a.706.706,0,0,0-.162-.752l-.972-.97a.71.71,0,0,0-.752-.162L21.27,4.7,19.8,2.9a.708.708,0,0,0-.732-.237l-1.327.357a.708.708,0,0,0-.515.57l-.252,1.548a1.058,1.058,0,0,1-.873.873l-1.547.252a.708.708,0,0,0-.57.515L13.625,8.1a.711.711,0,0,0,.235.732l1.213.992a1.057,1.057,0,0,1,.318,1.193l-.558,1.47a.706.706,0,0,0,.162.752l.972.972a.71.71,0,0,0,.752.162l1.472-.558a1.054,1.054,0,0,1,1.192.32l.993,1.215a.712.712,0,0,0,.733.237Z" transform="translate(3.426 -2.638)" fill="none" stroke="#000" stroke-linecap="round" stroke-linejoin="round" stroke-width="2"/>
    </g>
    <path id="Path_26" data-name="Path 26" d="M-.057.086h40v40h-40v-40Z" transform="translate(0 0)" fill="none"/>
    <path id="Path_27" data-name="Path 27" d="M-.057.086h40v40h-40v-40Z" transform="translate(0 0)" fill="none"/>
  </g>
</svg>
