<svg xmlns="http://www.w3.org/2000/svg" width="82.048" height="82.051" viewBox="0 0 82.048 82.051">
  <g id="undraw_male_avatar_323b" transform="translate(0)">
    <path id="Path_28" data-name="Path 28" d="M344.048,153.024a40.884,40.884,0,0,1-3.3,16.155l-.136.313a41.092,41.092,0,0,1-44.7,23.941q-.37-.066-.738-.136a40.655,40.655,0,0,1-7.421-2.188q-.584-.235-1.16-.487c-.262-.114-.524-.232-.784-.353a41.028,41.028,0,1,1,58.246-37.244Z" transform="translate(-262 -112)" fill="#0b3954"/>
    <path id="Path_29" data-name="Path 29" d="M415.3,383.524q-.37-.065-.738-.136a168.7,168.7,0,0,0-2.585-24.188,89.748,89.748,0,0,0-4.424-16.09,50.066,50.066,0,0,0-2.315-5.078,26.335,26.335,0,0,0-7.35-9.091l.432-.59a25.382,25.382,0,0,1,6.581,7.535q.876,1.453,1.682,3.1.865,1.762,1.649,3.742.5,1.26.967,2.607a94.635,94.635,0,0,1,3.454,13.349q.315,1.657.6,3.395A172.139,172.139,0,0,1,415.3,383.524Z" transform="translate(-381.397 -302.091)" opacity="0.2"/>
    <path id="Path_30" data-name="Path 30" d="M409.208,614.735c-.262-.114-.524-.232-.784-.353a59.592,59.592,0,0,0-1.572-9.417,30.9,30.9,0,0,0-1.433-4.272,12.82,12.82,0,0,0-3.858-5.4l.432-.589a13.413,13.413,0,0,1,4.034,5.527,37.911,37.911,0,0,1,2.417,8.517C408.82,610.891,409.058,612.965,409.208,614.735Z" transform="translate(-384.621 -536.113)" opacity="0.2"/>
    <circle id="Ellipse_1" data-name="Ellipse 1" cx="3.652" cy="3.652" r="3.652" transform="translate(8.76 19.528)" opacity="0.2"/>
    <circle id="Ellipse_2" data-name="Ellipse 2" cx="3.652" cy="3.652" r="3.652" transform="translate(9.936 50.965)" opacity="0.2"/>
    <path id="Path_31" data-name="Path 31" d="M482.257,299.252a16.221,16.221,0,0,0,.935,8.325,14.783,14.783,0,0,0,2.8-15.822A16.221,16.221,0,0,0,482.257,299.252Z" transform="translate(-455.347 -269.938)" opacity="0.2"/>
    <path id="Path_32" data-name="Path 32" d="M334.953,400.739a16.3,16.3,0,0,0,8.355.546,14.874,14.874,0,0,0-15.091-5.518A16.3,16.3,0,0,0,334.953,400.739Z" transform="translate(-320.18 -361.054)" opacity="0.2"/>
    <path id="Path_33" data-name="Path 33" d="M343.745,641.4a11.371,11.371,0,0,0,5.86.371,10.362,10.362,0,0,0-10.578-3.868A11.37,11.37,0,0,0,343.745,641.4Z" transform="translate(-329.679 -573.881)" opacity="0.2"/>
    <circle id="Ellipse_3" data-name="Ellipse 3" cx="15.993" cy="15.993" r="15.993" transform="translate(24.946 18.122)" fill="#d0cde1"/>
    <path id="Path_34" data-name="Path 34" d="M547.833,457.785s2,9.5,2,10.5,9.5,5.5,9.5,5.5l8.5-1.5,3-9s-5-7.5-5-10.5Z" transform="translate(-513.141 -411.425)" fill="#d0cde1"/>
    <path id="Path_35" data-name="Path 35" d="M450.783,525.269l-.136.313a41.092,41.092,0,0,1-44.7,23.941q-.37-.066-.738-.136a40.654,40.654,0,0,1-7.421-2.188q-.584-.235-1.16-.487c-.262-.114-.524-.232-.784-.353a40.971,40.971,0,0,1-6.706-3.918l-1.9-5.5,1.066-.813,2.192-1.674,2.339-1.785.608-.465,9.177-7.006.677-.517,4.77-3.641h0s5.158,8.405,12.656,5.906a10.338,10.338,0,0,0,7.333-9.665Z" transform="translate(-372.039 -468.09)" fill="#2f2e41"/>
    <path id="Path_36" data-name="Path 36" d="M457.806,222.9s5.078-11,14.81-8.463,15.234,6.347,15.657,10.156a54.33,54.33,0,0,1-.212,9.521s-1.058-7.828-7.828-6.136-17.349.423-17.349.423l-1.693,15.233s-1.9-2.751-4.02-1.058S451.036,226.283,457.806,222.9Z" transform="translate(-430.736 -201.668)" fill="#2f2e41"/>
    <path id="Path_37" data-name="Path 37" d="M383.1,689.527q-.584-.235-1.16-.487c-.262-.114-.524-.232-.784-.353a41.132,41.132,0,0,1-10.631-7.125,14.38,14.38,0,0,1,2.029-2.293h7.5l1.124,3.78Z" transform="translate(-357.349 -610.419)" fill="#2f2e41"/>
    <path id="Path_38" data-name="Path 38" d="M853.358,576.32l6.432,1.136a41.017,41.017,0,0,1-6.889,10.75Z" transform="translate(-781.181 -519.964)" fill="#2f2e41"/>
  </g>
</svg>
