<svg xmlns="http://www.w3.org/2000/svg" xmlns:xlink="http://www.w3.org/1999/xlink" width="64.78" height="51.5" viewBox="0 0 64.78 51.5">
  <defs>
    <linearGradient id="linear-gradient" x1="0.5" y1="1" x2="0.5" gradientUnits="objectBoundingBox">
      <stop offset="0" stop-color="gray" stop-opacity="0.251"/>
      <stop offset="0.54" stop-color="gray" stop-opacity="0.122"/>
      <stop offset="1" stop-color="gray" stop-opacity="0.102"/>
    </linearGradient>
  </defs>
  <g id="undraw_book_lover_mkck" transform="translate(0 -0.008)">
    <path id="Path_225" data-name="Path 225" d="M139.034,76.493A36.164,36.164,0,0,1,127.3,73.58a66.153,66.153,0,0,0-11.421-3.819c-2.573-.493-5.516-.563-7.589.816-2,1.33-2.64,3.619-2.987,5.746a7.986,7.986,0,0,0,.3,4.781c.5,1.04,1.377,1.914,1.985,2.913,2.12,3.466.622,7.739-1.675,11.123a42.178,42.178,0,0,0-3.158,4.792,6.477,6.477,0,0,0-.489,5.35,8.473,8.473,0,0,0,4.3,3.894c3.78,1.833,8.233,2.358,12.579,2.655,9.616.658,19.282.373,28.924.088a84.922,84.922,0,0,0,10.661-.764,11.125,11.125,0,0,0,5.377-1.966,4.5,4.5,0,0,0,1.038-5.882c-2.02-3.134-7.6-3.913-9.014-7.277-.776-1.851.022-3.913,1.15-5.631,2.422-3.683,6.481-6.915,6.695-11.126a7.783,7.783,0,0,0-4.822-7.157c-3.162-1.44-7.549-1.257-9.881,1.117C146.875,75.68,142.653,76.619,139.034,76.493Z" transform="translate(-101.043 -67.783)" fill="#0b3954" opacity="0.1"/>
    <path id="Path_226" data-name="Path 226" d="M82.992,416.6l-21.678-.106-2.154-5.052,7.616-.553-1.327-5.539L80.513,403.4l-14.425-5.015,1.274-.3,23.2,3.784-1.277,8.644-1.826,4.751Z" transform="translate(-55.413 -372.861)" fill="#0b3954"/>
    <path id="Path_227" data-name="Path 227" d="M187,698.534a2.487,2.487,0,0,1,2.128.727s-.585.461-1.844-.177Z" transform="translate(-180.767 -657.018)" fill="#0b3954"/>
    <path id="Path_228" data-name="Path 228" d="M176.719,698.51a2.48,2.48,0,0,0-.431,2.207s.692-.277.767-1.687Z" transform="translate(-170.625 -657.014)" fill="#0b3954"/>
    <path id="Path_229" data-name="Path 229" d="M172.76,666.4s.532-.976,2.66.39a1.194,1.194,0,0,1-1.224.6A1.442,1.442,0,0,1,172.76,666.4Z" transform="translate(-167.429 -626.626)" fill="#0b3954"/>
    <path id="Path_230" data-name="Path 230" d="M152.681,670.274s-1.1-.127-1.211,2.4a1.2,1.2,0,0,0,1.2-.654A1.44,1.44,0,0,0,152.681,670.274Z" transform="translate(-147.487 -630.566)" fill="#0b3954"/>
    <path id="Path_231" data-name="Path 231" d="M160.44,624.618s.621-1.72,2.873-.5c0,0-.514,1.578-2.642,1.082Z" transform="translate(-155.889 -586.925)" fill="#0b3954"/>
    <path id="Path_232" data-name="Path 232" d="M149.52,585.861s1.17-1.738,3.245-.127c0,0-.727,1.631-3.068.745Z" transform="translate(-145.66 -550.739)" fill="#0b3954"/>
    <path id="Path_233" data-name="Path 233" d="M145.6,548.725s1.365-1.6,3.42,0a2.922,2.922,0,0,1-3.42.408Z" transform="translate(-141.989 -516.051)" fill="#0b3954"/>
    <path id="Path_234" data-name="Path 234" d="M142.24,510.334a2.3,2.3,0,0,1,3.352-.089,2.981,2.981,0,0,1-3.352.479Z" transform="translate(-138.842 -480.037)" fill="#0b3954"/>
    <path id="Path_235" data-name="Path 235" d="M144.2,470.666s1.457-2.146,3.3-.692c0,0-1.561,1.844-3.3,1.1Z" transform="translate(-140.677 -442.479)" fill="#0b3954"/>
    <path id="Path_236" data-name="Path 236" d="M149.52,433s1.543-2.128,3.334-.5c0,0-1.827,1.844-3.334.887Z" transform="translate(-145.66 -407.282)" fill="#0b3954"/>
    <path id="Path_237" data-name="Path 237" d="M156.46,394.09s1.827-2,3.42-1.2c0,0-1.9,2.124-3.5,1.734Z" transform="translate(-152.086 -370.571)" fill="#0b3954"/>
    <path id="Path_238" data-name="Path 238" d="M165.509,355.078s2.108-2.45,3.334-1.631a6.122,6.122,0,0,1-3.483,2.09Z" transform="translate(-160.497 -333.648)" fill="#0b3954"/>
    <path id="Path_239" data-name="Path 239" d="M178.608,320.022s1.845-2,3.193-1.5c0,0-1.578,2.075-3.44,2.128Z" transform="translate(-172.674 -301.014)" fill="#0b3954"/>
    <path id="Path_240" data-name="Path 240" d="M194.129,283.72s2.039-1.915,2.926-1.578c0,0-1.472,2.128-3.015,2Z" transform="translate(-187.361 -266.979)" fill="#0b3954"/>
    <path id="Path_241" data-name="Path 241" d="M208.32,243.246s1.756-2.288,2.714-2.111c0,0-1.065,2.04-2.714,2.343Z" transform="translate(-200.737 -228.597)" fill="#0b3954"/>
    <path id="Path_242" data-name="Path 242" d="M221.354,204.18s1.552-1.754,2.39-1.75c0,0-1.225,2.343-2.454,2.322Z" transform="translate(-212.885 -192.352)" fill="#0b3954"/>
    <path id="Path_243" data-name="Path 243" d="M227.761,146.373l1.5-3.653s.075,3.3-1.69,4.331Z" transform="translate(-218.767 -136.424)" fill="#0b3954"/>
    <path id="Path_244" data-name="Path 244" d="M240.04,88a21.806,21.806,0,0,0,.089-3.3,5.905,5.905,0,0,1-.1,4.647Z" transform="translate(-230.438 -82.079)" fill="#0b3954"/>
    <path id="Path_245" data-name="Path 245" d="M121.651,634.938s-1.554-.963-2.561,1.393c0,0,1.383.918,2.744-.792Z" transform="translate(-117.158 -597.285)" fill="#0b3954"/>
    <path id="Path_246" data-name="Path 246" d="M106.861,594.1s-1.906-.87-2.831,1.591c0,0,1.472,1.013,3-.969Z" transform="translate(-103.052 -559.081)" fill="#0b3954"/>
    <path id="Path_247" data-name="Path 247" d="M93.62,551.035s-1.365-1.6-3.42,0a2.922,2.922,0,0,0,3.42.408Z" transform="translate(-90.097 -518.215)" fill="#0b3954"/>
    <path id="Path_248" data-name="Path 248" d="M91.932,510.334a2.3,2.3,0,0,0-3.352-.089,2.981,2.981,0,0,0,3.352.479Z" transform="translate(-88.58 -480.037)" fill="#0b3954"/>
    <path id="Path_249" data-name="Path 249" d="M98.659,465.251s-.97-2.4-3.079-1.37c0,0,1.14,2.131,2.993,1.769Z" transform="translate(-95.137 -437.004)" fill="#0b3954"/>
    <path id="Path_250" data-name="Path 250" d="M105.553,425.426s-.965-2.445-3.1-1.312c0,0,1.31,2.241,3.008,1.689Z" transform="translate(-101.572 -399.716)" fill="#0b3954"/>
    <path id="Path_251" data-name="Path 251" d="M129.043,371.651s-.38-2.681-2.153-2.921c0,0,.376,2.827,1.915,3.4Z" transform="translate(-124.464 -348.12)" fill="#0b3954"/>
    <path id="Path_252" data-name="Path 252" d="M144.554,332.323s-.148-3.23-1.614-3.343a6.153,6.153,0,0,0,1.449,3.8Z" transform="translate(-139.497 -310.888)" fill="#0b3954"/>
    <path id="Path_253" data-name="Path 253" d="M157.507,297.424s-.437-2.686-1.837-3.014c0,0,.174,2.6,1.7,3.673Z" transform="translate(-151.421 -278.507)" fill="#0b3954"/>
    <path id="Path_254" data-name="Path 254" d="M183.4,260.539s-.015-2.8-.87-3.209c0,0-.53,2.533.622,3.566Z" transform="translate(-176.465 -243.775)" fill="#0b3954"/>
    <path id="Path_255" data-name="Path 255" d="M193.968,225.5s-.12-2.881-1.005-3.287c0,0-.3,2.28.873,3.476Z" transform="translate(-186.319 -210.88)" fill="#0b3954"/>
    <path id="Path_256" data-name="Path 256" d="M211.774,190.9s-.005-2.343-.637-2.893c0,0-.628,2.567.307,3.364Z" transform="translate(-203.181 -178.846)" fill="#0b3954"/>
    <path id="Path_257" data-name="Path 257" d="M216.84,140.9l-.615-3.9s-.835,3.2.644,4.6Z" transform="translate(-207.921 -131.066)" fill="#0b3954"/>
    <path id="Path_258" data-name="Path 258" d="M208.429,94.283a21.924,21.924,0,0,1-1.546-2.913,5.9,5.9,0,0,0,2.153,4.117Z" transform="translate(-199.39 -88.326)" fill="#0b3954"/>
    <path id="Path_259" data-name="Path 259" d="M202.223,65.605s-1.49-3.724-2.163-4.025a4.72,4.72,0,0,1,2.288,3.919Z" transform="translate(-193 -60.423)" fill="#0b3954"/>
    <path id="Path_260" data-name="Path 260" d="M219.662,128.857l-.1-.031c1.257-4.1,1.571-6.713.883-7.369l.073-.077C221.245,122.072,220.95,124.657,219.662,128.857Z" transform="translate(-211.265 -116.436)" fill="#444053"/>
    <path id="Path_261" data-name="Path 261" d="M164.281,244.608l-.151-.054c.134-.376.277-.757.428-1.132,1.312-3.271,2.429-6.313,3.146-8.649l.131-.063c-.718,2.34-1.815,5.5-3.129,8.774C164.556,243.853,164.413,244.232,164.281,244.608Z" transform="translate(-159.345 -222.588)" fill="#444053"/>
    <path id="Path_262" data-name="Path 262" d="M144.706,408.3a20.716,20.716,0,0,1-3.478-6.234,23.065,23.065,0,0,1-1.372-7.143,26.954,26.954,0,0,1,1.638-9.544l.119.139a24.459,24.459,0,0,0-.186,16.467,20.523,20.523,0,0,0,3.44,6.174Z" transform="translate(-136.599 -363.716)" fill="#444053"/>
    <path id="Path_263" data-name="Path 263" d="M521.636,670.36a4.348,4.348,0,0,0-.3,4.4l-11.463,4.972-1.1.231-.507-2.217.339-2.8v-1.529Z" transform="translate(-481.69 -630.647)" fill="#d5d6db"/>
    <path id="Path_264" data-name="Path 264" d="M59.16,566.282l15.866-2.892,21.023,3.349-13.058,4.7Z" transform="translate(-55.413 -527.702)" fill="#0b3954"/>
    <path id="Path_265" data-name="Path 265" d="M59.16,566.282l15.866-2.892,21.023,3.349-13.058,4.7Z" transform="translate(-55.413 -527.702)" fill="#0b3954"/>
    <path id="Path_266" data-name="Path 266" d="M138.906,652.47a5.66,5.66,0,0,0,.226,5.408l23.528,5.1a5.565,5.565,0,0,1,.075-5.348Z" transform="translate(-135.16 -613.89)" fill="#0b3954"/>
    <path id="Path_267" data-name="Path 267" d="M138.906,652.47a5.66,5.66,0,0,0,.226,5.408l23.528,5.1a5.565,5.565,0,0,1,.075-5.348Z" transform="translate(-135.16 -613.89)" opacity="0.1"/>
    <path id="Path_268" data-name="Path 268" d="M153.236,667.86s-.848,2.057,0,3.388" transform="translate(-148.788 -628.305)" opacity="0.1"/>
    <path id="Path_269" data-name="Path 269" d="M174.838,735.465l13.135-5.6s.735.158.26.7S175.091,736,175.091,736l-23.782-5.637Z" transform="translate(-147.337 -686.379)" fill="#0b3954"/>
    <path id="Path_270" data-name="Path 270" d="M174.838,735.465l13.135-5.6s.735.158.26.7S175.091,736,175.091,736l-23.782-5.637Z" transform="translate(-147.337 -686.379)" opacity="0.1"/>
    <path id="Path_271" data-name="Path 271" d="M497.484,742.86a3.378,3.378,0,0,0,0,3.8" transform="translate(-471.06 -698.555)" opacity="0.1"/>
    <rect id="Rectangle_45" data-name="Rectangle 45" width="5.989" height="0.063" transform="translate(26.875 46.174) rotate(-18.45)" opacity="0.1"/>
    <rect id="Rectangle_46" data-name="Rectangle 46" width="7.298" height="0.063" transform="translate(26.873 46.684) rotate(-20.82)" opacity="0.1"/>
    <rect id="Rectangle_47" data-name="Rectangle 47" width="8.459" height="0.063" transform="translate(26.911 47.285) rotate(-22.26)" opacity="0.1"/>
    <rect id="Rectangle_48" data-name="Rectangle 48" width="9.737" height="0.063" transform="translate(27.003 47.815) rotate(-24.31)" opacity="0.1"/>
    <rect id="Rectangle_49" data-name="Rectangle 49" width="10.649" height="0.063" transform="matrix(0.916, -0.401, 0.401, 0.916, 27.073, 48.073)" opacity="0.1"/>
    <rect id="Rectangle_50" data-name="Rectangle 50" width="12.744" height="0.063" transform="translate(27.22 48.506) rotate(-23.36)" opacity="0.1"/>
    <path id="Path_272" data-name="Path 272" d="M152.23,579.283l11.147-2.343,6.791,1.3-9.134,2.945Z" transform="translate(-142.589 -540.394)" fill="#fff" opacity="0.3"/>
    <path id="Path_273" data-name="Path 273" d="M537.06,659.69s.576.232.238.591-13.3,4.11-13.3,4.11Z" transform="translate(-496.424 -620.653)" fill="#0b3954"/>
    <path id="Path_274" data-name="Path 274" d="M620.935,574.18a4.348,4.348,0,0,0-.3,4.4l-11.463,4.972-1.1.232-.507-2.217.344-2.8v-1.531Z" transform="translate(-574.701 -540.558)" fill="#d5d6db"/>
    <path id="Path_275" data-name="Path 275" d="M158.46,470.1l15.866-2.892,21.024,3.349-13.058,4.7Z" transform="translate(-148.424 -437.613)" fill="#3a3768"/>
    <path id="Path_276" data-name="Path 276" d="M238.16,556.29a5.659,5.659,0,0,0,.225,5.408l23.528,5.1a5.566,5.566,0,0,1,.078-5.348Z" transform="translate(-228.127 -523.801)" fill="#3a3768"/>
    <path id="Path_277" data-name="Path 277" d="M238.16,556.29a5.659,5.659,0,0,0,.225,5.408l23.528,5.1a5.566,5.566,0,0,1,.078-5.348l-7.44-1.611Z" transform="translate(-228.127 -523.801)" opacity="0.1"/>
    <path id="Path_278" data-name="Path 278" d="M252.53,571.68s-.847,2.056,0,3.388" transform="translate(-241.794 -538.217)" opacity="0.1"/>
    <path id="Path_279" data-name="Path 279" d="M274.128,639.285l13.136-5.6s.734.158.259.7-13.142,5.447-13.142,5.447L250.6,634.187Z" transform="translate(-240.339 -596.29)" fill="#3a3768"/>
    <path id="Path_280" data-name="Path 280" d="M274.128,639.285l13.136-5.6s.734.158.259.7-13.142,5.447-13.142,5.447L250.6,634.187Z" transform="translate(-240.339 -596.29)" opacity="0.1"/>
    <path id="Path_281" data-name="Path 281" d="M596.774,646.68a3.378,3.378,0,0,0,0,3.8" transform="translate(-564.061 -608.467)" opacity="0.1"/>
    <rect id="Rectangle_51" data-name="Rectangle 51" width="5.989" height="0.063" transform="translate(33.164 40.084) rotate(-18.45)" opacity="0.1"/>
    <rect id="Rectangle_52" data-name="Rectangle 52" width="7.298" height="0.063" transform="translate(33.163 40.593) rotate(-20.82)" opacity="0.1"/>
    <rect id="Rectangle_53" data-name="Rectangle 53" width="8.459" height="0.063" transform="translate(33.2 41.193) rotate(-22.26)" opacity="0.1"/>
    <rect id="Rectangle_54" data-name="Rectangle 54" width="9.737" height="0.063" transform="translate(33.292 41.724) rotate(-24.31)" opacity="0.1"/>
    <rect id="Rectangle_55" data-name="Rectangle 55" width="10.649" height="0.063" transform="matrix(0.916, -0.401, 0.401, 0.916, 33.362, 41.981)" opacity="0.1"/>
    <rect id="Rectangle_56" data-name="Rectangle 56" width="12.744" height="0.063" transform="translate(33.509 42.414) rotate(-23.36)" opacity="0.1"/>
    <path id="Path_282" data-name="Path 282" d="M251.53,483.1l11.147-2.343,6.791,1.3L260.333,485Z" transform="translate(-235.6 -450.305)" fill="#fff" opacity="0.45"/>
    <path id="Path_283" data-name="Path 283" d="M636.388,563.51s.576.232.238.591-13.3,4.11-13.3,4.11Z" transform="translate(-589.463 -530.564)" fill="#3a3768"/>
    <path id="Path_284" data-name="Path 284" d="M630.363,464.15s-1.436,3.146-.3,5.795L618.6,473.523l-1.1.232L617,471.539l.339-2.8v-1.531Z" transform="translate(-583.534 -437.497)" fill="#d5d6db"/>
    <path id="Path_285" data-name="Path 285" d="M167.89,360.072l15.866-2.892,21.024,3.349-13.059,4.7Z" transform="translate(-157.257 -334.552)" fill="#0b3954"/>
    <path id="Path_286" data-name="Path 286" d="M247.61,446.26a5.656,5.656,0,0,0,.224,5.408l23.528,5.1a5.564,5.564,0,0,1,.077-5.348Z" transform="translate(-236.977 -420.74)" fill="#0b3954"/>
    <path id="Path_287" data-name="Path 287" d="M247.61,446.26a5.656,5.656,0,0,0,.224,5.408l23.528,5.1a5.564,5.564,0,0,1,.077-5.348Z" transform="translate(-236.977 -420.74)" opacity="0.1"/>
    <path id="Path_288" data-name="Path 288" d="M261.966,461.65s-.848,2.057,0,3.388" transform="translate(-250.632 -435.155)" opacity="0.1"/>
    <path id="Path_289" data-name="Path 289" d="M283.568,536.748l13.135-4.212s.735.158.26.7-13.142,4.053-13.142,4.053L260.04,531.65Z" transform="translate(-249.181 -500.722)" fill="#0b3954"/>
    <path id="Path_290" data-name="Path 290" d="M283.568,536.748l13.135-4.212s.735.158.26.7-13.142,4.053-13.142,4.053L260.04,531.65Z" transform="translate(-249.181 -500.722)" opacity="0.1"/>
    <path id="Path_291" data-name="Path 291" d="M606.214,536.65a3.378,3.378,0,0,0,0,3.8" transform="translate(-572.904 -505.405)" opacity="0.1"/>
    <rect id="Rectangle_57" data-name="Rectangle 57" width="5.989" height="0.063" transform="translate(33.762 33.115) rotate(-18.45)" opacity="0.1"/>
    <rect id="Rectangle_58" data-name="Rectangle 58" width="7.298" height="0.063" transform="translate(33.76 33.625) rotate(-20.82)" opacity="0.1"/>
    <rect id="Rectangle_59" data-name="Rectangle 59" width="8.459" height="0.063" transform="translate(33.797 34.225) rotate(-22.26)" opacity="0.1"/>
    <rect id="Rectangle_60" data-name="Rectangle 60" width="9.737" height="0.063" transform="translate(33.89 34.755) rotate(-24.31)" opacity="0.1"/>
    <rect id="Rectangle_61" data-name="Rectangle 61" width="10.649" height="0.063" transform="matrix(0.916, -0.401, 0.401, 0.916, 33.96, 35.013)" opacity="0.1"/>
    <rect id="Rectangle_62" data-name="Rectangle 62" width="12.744" height="0.063" transform="translate(34.107 35.446) rotate(-23.36)" opacity="0.1"/>
    <path id="Path_292" data-name="Path 292" d="M260.96,373.073l11.147-2.343,6.791,1.3-9.134,2.945Z" transform="translate(-244.433 -347.244)" fill="#fff" opacity="0.3"/>
    <path id="Path_293" data-name="Path 293" d="M645.818,453.48s.576.232.238.592-13.3,4.11-13.3,4.11Z" transform="translate(-598.295 -427.503)" fill="#0b3954"/>
    <path id="Path_294" data-name="Path 294" d="M367.227,149.874s-2.407-.145-2.125,1.543a.412.412,0,0,0,.214.434s0-.127.247-.083a1.08,1.08,0,0,0,.262.013.546.546,0,0,0,.32-.132h0a1.912,1.912,0,0,0,.94-1.387s.2-.241.19-.3l-.408.174a.731.731,0,0,1,.03.537s-.013-.526-.092-.514c-.016,0-.211.1-.211.1a1.2,1.2,0,0,1,.058.882s.068-.63-.133-.845l-.286.167a1.263,1.263,0,0,1,.09.958,1.8,1.8,0,0,0-.15-.918l-.26.2a1.234,1.234,0,0,1,.1.877s-.021-.769-.158-.827a1.566,1.566,0,0,0-.262.282s.18.38.068.577c0,0-.068-.512-.127-.515a1.705,1.705,0,0,0-.25.57,1.232,1.232,0,0,1,.194-.6.678.678,0,0,0-.346.179s.035-.24.4-.261a1.556,1.556,0,0,1,.237-.273,1.483,1.483,0,0,0-.586.067.664.664,0,0,1,.653-.127l.253-.209a2.185,2.185,0,0,0-.684.007.833.833,0,0,1,.753-.054l.279-.167a2.538,2.538,0,0,0-.654-.056,1,1,0,0,1,.735.011l.2-.089s-.3-.059-.388-.068-.092-.034-.092-.034a1.046,1.046,0,0,1,.564.063A2.514,2.514,0,0,0,367.227,149.874Z" transform="translate(-347.568 -143.122)" fill="#0b3954"/>
    <path id="Path_295" data-name="Path 295" d="M901.827,259.454s-2.407-.145-2.125,1.543a.412.412,0,0,0,.214.434s0-.127.247-.083a1.115,1.115,0,0,0,.262.013.544.544,0,0,0,.317-.132h0a1.911,1.911,0,0,0,.941-1.387s.2-.241.19-.3l-.407.174a.731.731,0,0,1,.03.537s-.013-.526-.091-.514c-.016,0-.212.1-.212.1a1.2,1.2,0,0,1,.059.882s.068-.63-.134-.846l-.286.167a1.264,1.264,0,0,1,.09.958,1.8,1.8,0,0,0-.15-.918l-.259.2a1.235,1.235,0,0,1,.1.877s-.021-.769-.158-.827a1.587,1.587,0,0,0-.262.282s.18.38.068.577c0,0-.068-.512-.127-.515a1.706,1.706,0,0,0-.25.57,1.228,1.228,0,0,1,.2-.6.681.681,0,0,0-.346.179s.036-.24.4-.261a1.579,1.579,0,0,1,.237-.274,1.489,1.489,0,0,0-.587.068.664.664,0,0,1,.653-.127l.253-.209a2.186,2.186,0,0,0-.684.007.832.832,0,0,1,.753-.054l.279-.167a2.538,2.538,0,0,0-.654-.056,1,1,0,0,1,.735.011l.2-.089s-.3-.059-.388-.068-.092-.034-.092-.034a1.038,1.038,0,0,1,.564.063A2.556,2.556,0,0,0,901.827,259.454Z" transform="translate(-848.31 -245.762)" fill="#0b3954" opacity="0.1"/>
    <path id="Path_296" data-name="Path 296" d="M423.681,293.922s-1.049-2.174-2.384-1.1a.411.411,0,0,0-.274.4s.111-.058.19.175a1.122,1.122,0,0,0,.117.234.547.547,0,0,0,.272.215h0a1.911,1.911,0,0,0,1.669.144,1.084,1.084,0,0,0,.356.016l-.35-.27a.735.735,0,0,1-.455.288s.453-.268.4-.33c-.01-.013-.19-.135-.19-.135a1.2,1.2,0,0,1-.742.481s.583-.247.673-.529l-.285-.168a1.264,1.264,0,0,1-.793.546s.6-.279.728-.578l-.3-.127s-.326.483-.716.517c0,0,.661-.393.645-.542a1.6,1.6,0,0,0-.374-.091s-.242.341-.47.341c0,0,.414-.31.388-.36a1.671,1.671,0,0,0-.621.063,1.233,1.233,0,0,1,.623-.127.682.682,0,0,0-.326-.215s.227-.086.424.224a1.561,1.561,0,0,1,.354.073,1.487,1.487,0,0,0-.345-.478s.293.059.426.507l.307.122a2.112,2.112,0,0,0-.339-.593s.289.107.415.633l.281.162a2.506,2.506,0,0,0-.269-.6,1,1,0,0,1,.348.647l.175.13s-.1-.291-.127-.372-.016-.1-.016-.1a1.039,1.039,0,0,1,.22.522A2.363,2.363,0,0,0,423.681,293.922Z" transform="translate(-399.968 -276.739)" fill="#0b3954" opacity="0.1"/>
    <path id="Path_297" data-name="Path 297" d="M807.462,190.3s-1.048-2.174-2.384-1.1a.412.412,0,0,0-.274.4s.111-.057.19.175a1.1,1.1,0,0,0,.117.235.544.544,0,0,0,.271.215h0a1.913,1.913,0,0,0,1.67.145,1.089,1.089,0,0,0,.357.015l-.348-.271a.735.735,0,0,1-.454.288s.453-.269.4-.331c-.01-.013-.19-.135-.19-.135a1.2,1.2,0,0,1-.742.481s.583-.247.673-.528l-.289-.167a1.264,1.264,0,0,1-.793.546s.6-.28.728-.579l-.3-.127s-.326.483-.716.517c0,0,.661-.393.644-.541a1.567,1.567,0,0,0-.374-.091s-.242.341-.471.341c0,0,.414-.31.389-.36a1.675,1.675,0,0,0-.621.063,1.232,1.232,0,0,1,.623-.127.679.679,0,0,0-.325-.215s.227-.086.424.224a1.567,1.567,0,0,1,.354.074,1.481,1.481,0,0,0-.345-.479s.293.06.426.51l.308.122a2.111,2.111,0,0,0-.339-.594s.289.107.414.633l.282.162a2.527,2.527,0,0,0-.27-.6,1,1,0,0,1,.348.647l.176.13s-.094-.291-.127-.372-.016-.1-.016-.1a1.041,1.041,0,0,1,.22.523A2.433,2.433,0,0,0,807.462,190.3Z" transform="translate(-759.443 -179.682)" fill="#0b3954" opacity="0.1"/>
    <path id="Path_298" data-name="Path 298" d="M860.323,360.1s-1.048-2.175-2.386-1.1a.412.412,0,0,0-.274.4s.111-.057.19.175a1.1,1.1,0,0,0,.116.235.544.544,0,0,0,.271.215h0a1.912,1.912,0,0,0,1.67.145s.305.053.356.015l-.35-.27a.735.735,0,0,1-.455.288s.453-.269.4-.331c-.01-.013-.19-.135-.19-.135a1.2,1.2,0,0,1-.742.482s.583-.248.673-.529l-.286-.168a1.261,1.261,0,0,1-.793.546s.6-.28.728-.579l-.3-.127s-.326.483-.716.517c0,0,.661-.393.645-.542a1.574,1.574,0,0,0-.374-.091s-.242.341-.471.341c0,0,.414-.31.389-.36a1.675,1.675,0,0,0-.621.063,1.236,1.236,0,0,1,.623-.127.676.676,0,0,0-.326-.215s.227-.087.424.224a1.562,1.562,0,0,1,.354.073,1.493,1.493,0,0,0-.345-.479s.293.06.426.51l.307.122a2.1,2.1,0,0,0-.339-.593s.289.106.414.633l.282.161a2.527,2.527,0,0,0-.27-.6,1,1,0,0,1,.349.648l.175.127s-.1-.291-.127-.372-.016-.1-.016-.1a1.037,1.037,0,0,1,.22.522A2.571,2.571,0,0,0,860.323,360.1Z" transform="translate(-808.955 -338.729)" fill="#0b3954" opacity="0.1"/>
    <ellipse id="Ellipse_16" data-name="Ellipse 16" cx="1.456" cy="0.163" rx="1.456" ry="0.163" transform="translate(11.334 49.345)" fill="#0b3954" opacity="0.1"/>
    <ellipse id="Ellipse_17" data-name="Ellipse 17" cx="1.456" cy="0.163" rx="1.456" ry="0.163" transform="translate(1.789 46.578)" fill="#0b3954" opacity="0.1"/>
    <ellipse id="Ellipse_18" data-name="Ellipse 18" cx="1.456" cy="0.163" rx="1.456" ry="0.163" transform="translate(18.61 51.182)" fill="#0b3954" opacity="0.1"/>
    <ellipse id="Ellipse_19" data-name="Ellipse 19" cx="1.456" cy="0.163" rx="1.456" ry="0.163" transform="translate(55.894 47.18)" fill="#0b3954" opacity="0.1"/>
    <ellipse id="Ellipse_20" data-name="Ellipse 20" cx="1.456" cy="0.163" rx="1.456" ry="0.163" transform="translate(43.778 46.39)" fill="#0b3954" opacity="0.1"/>
    <ellipse id="Ellipse_21" data-name="Ellipse 21" cx="1.722" cy="0.296" rx="1.722" ry="0.296" transform="translate(35.674 49.976)" fill="#0b3954" opacity="0.1"/>
    <path id="Path_299" data-name="Path 299" d="M668.773,790.14s-2.4,1.239-1.159,2.7a.463.463,0,0,0,.453.294s-.067-.123.19-.221a1.235,1.235,0,0,0,.259-.137.608.608,0,0,0,.232-.31h0a2.138,2.138,0,0,0,.11-1.87s.049-.343.006-.4l-.291.4a.816.816,0,0,1,.336.5s-.317-.5-.38-.443c-.014.011-.144.219-.144.219a1.342,1.342,0,0,1,.56.814s-.294-.644-.611-.736l-.182.324a1.409,1.409,0,0,1,.633.869s-.331-.662-.669-.8l-.134.343s.55.35.6.784c0,0-.46-.726-.625-.7a1.754,1.754,0,0,0-.09.421s.388.26.4.515c0,0-.358-.453-.414-.423a1.908,1.908,0,0,0,.087.692,1.366,1.366,0,0,1-.159-.692.76.76,0,0,0-.23.37s-.1-.25.237-.481a1.752,1.752,0,0,1,.072-.4,1.67,1.67,0,0,0-.524.4s.058-.329.557-.492l.127-.347a2.359,2.359,0,0,0-.653.4s.111-.326.692-.483l.172-.317a2.906,2.906,0,0,0-.66.317,1.122,1.122,0,0,1,.713-.41l.14-.2s-.322.115-.412.156-.108.021-.108.021a1.165,1.165,0,0,1,.577-.262A2.818,2.818,0,0,0,668.773,790.14Z" transform="translate(-630.609 -742.841)" fill="#0b3954"/>
    <path id="Path_300" data-name="Path 300" d="M485.849,67.322c-.414-1.125-2.694-1.231-3.683-.944a29.571,29.571,0,0,1-2.977.551l-.051-.049c.1-.03.105-.105.092-.216a3.377,3.377,0,0,1,.006-.438,1.079,1.079,0,0,0,.917-.206h0c.57-.253.417-1.338.526-1.634a18.8,18.8,0,0,0,.209-2.179h.008l0-.218c.006-.094.008-.149.008-.149a14.973,14.973,0,0,1,.165-1.915,16.768,16.768,0,0,0,.2-2.027v-.031l-.008-.138c.006-.1.008-.213.008-.331,0-.541-.056-1.224-.063-1.334v-.058a1.948,1.948,0,0,0-1.01-1.827l-1.222-.543a20.7,20.7,0,0,1-.336-2.823c0-.143.013-.285.027-.427,0,.041,0,.083-.005.127v.276c.037-1.185.485-2.376.443-3.536,0,.113-.012.227-.023.341a3.681,3.681,0,0,0-.122-1.165.689.689,0,0,0-.2-.361.819.819,0,0,0-.347-.137,6.98,6.98,0,0,0-.911-.17,1.407,1.407,0,0,0-.205-.4,4.506,4.506,0,0,0-2.718-1.9,1.807,1.807,0,0,0-1.6.388,1.2,1.2,0,0,0-.113.114c-.206.246-.3.57-.507.816-.014.016-.03.032-.045.048-.414.37-1.06.448-1.52.78a1.823,1.823,0,0,0-.227.2,3.855,3.855,0,0,0-.5.6,2.5,2.5,0,0,0-.486.942c-.132.7.342,1.357.43,2.058.2,1.569-1.54,2.961-1.211,4.509a2.064,2.064,0,0,0,.559,1c-.677.613-1.253,1.208-1.253,1.208v.035H468l.011.127H468l.059.687-.059,1v.094h0a16,16,0,0,0,.19,1.963,14.952,14.952,0,0,1,.164,1.915s.12,2.25.231,2.548-.046,1.379.526,1.634h0a1.2,1.2,0,0,0,.574.238c-.029.237-.011.408.084.462a.276.276,0,0,0,.133.038,1.411,1.411,0,0,0-.1.18,2.683,2.683,0,0,1-.664-.156c-.614-.253-2.653-.823-3.245-.422s-2.017.764-1.359,2.378.965,1.654.965,1.654a2.343,2.343,0,0,1,.526.529,6.506,6.506,0,0,0,2.5.977,4.508,4.508,0,0,1,.586.029s-.5.438-.433.693a21.028,21.028,0,0,1-.152,2.293s.507.51.723-.159l.008.01c.04.055.26.3.672-.01a3.768,3.768,0,0,1,.536-.339l2-.282a5.654,5.654,0,0,1,.625,0,1.306,1.306,0,0,0,.823-.307c.414.157.878.329,1.1.391a10.251,10.251,0,0,0,2.991.507.67.67,0,0,0,.26-.185l.46.015-.215.043.989.015-.024.014.715-.006c1.046.009,2.222.013,2.376-.022a16.692,16.692,0,0,1,1.87,0h.1a1.135,1.135,0,0,0,.811-1.677,2.975,2.975,0,0,0-2.383-1.476c.168-.034.314-.06.41-.075a3.246,3.246,0,0,0,1.294-.573c.066-.13.745-.507.921-.721A4.034,4.034,0,0,0,485.849,67.322Zm-11.441,3.15-.068.022-.046.015-.087.086-.222-.147C474.122,70.456,474.263,70.465,474.407,70.471Zm6.036,1.785Z" transform="translate(-440.568 -43.42)" fill="url(#linear-gradient)"/>
    <path id="Path_301" data-name="Path 301" d="M686.65,249.481s.969,2.533,1.52,2.28.4-1.33.507-1.625.222-2.533.222-2.533a15.307,15.307,0,0,1,.158-1.9,17.449,17.449,0,0,0,.19-2.013v-.031l-.1-1.837-.592-.148-1.372.507-.19,1.085-.074.424-.032.181Z" transform="translate(-648.772 -229.107)" fill="#be6f72"/>
    <path id="Path_302" data-name="Path 302" d="M691.69,358.3a6.8,6.8,0,0,0,1.2.823c.279.066.45.657.45.657" transform="translate(-653.493 -338.351)" opacity="0.1"/>
    <path id="Path_303" data-name="Path 303" d="M528.6,251.231s-.969,2.533-1.52,2.28-.4-1.33-.507-1.625-.222-2.533-.222-2.533a15.317,15.317,0,0,0-.158-1.9,17.462,17.462,0,0,1-.19-2.013V245.4l.105-1.837.591-.148,1.372.507.19,1.085.074.424.032.181Z" transform="translate(-498.297 -230.746)" fill="#be6f72"/>
    <rect id="Rectangle_63" data-name="Rectangle 63" width="2.163" height="3.371" transform="translate(34.447 6.927)" fill="#3e373a"/>
    <rect id="Rectangle_64" data-name="Rectangle 64" width="2.163" height="3.371" transform="translate(34.447 6.927)" opacity="0.1"/>
    <path id="Path_304" data-name="Path 304" d="M553.222,403.609s-.739.813-.465.96a30.235,30.235,0,0,1,2.048,2.913s5.827.718,6.925-.359a4.669,4.669,0,0,0,1.077-3s-.883.19-.979.087-.625-.6-.625-.6S553.729,403.156,553.222,403.609Z" transform="translate(-523.303 -380.602)" fill="#4b4b5b"/>
    <path id="Path_305" data-name="Path 305" d="M553.222,403.609s-.739.813-.465.96a30.235,30.235,0,0,1,2.048,2.913s5.827.718,6.925-.359a4.669,4.669,0,0,0,1.077-3s-.883.19-.979.087-.625-.6-.625-.6S553.729,403.156,553.222,403.609Z" transform="translate(-523.303 -380.602)" opacity="0.02"/>
    <path id="Path_306" data-name="Path 306" d="M540.261,158.211l-1.9,1.52-.574.042-.211.015-3.542.26-3.673-.269-.547-.04-.7-.051L527.66,158.3a24.945,24.945,0,0,1,1.934-1.85,3.967,3.967,0,0,1,.937-.626l.042-.015a1.042,1.042,0,0,0,.4-.28,9.411,9.411,0,0,0,1.372-2.55s3.146-1.625,2.766.507,1.414,1.6,1.414,1.6l.592.27.234.107.6.273,1.345.617A2,2,0,0,1,540.261,158.211Z" transform="translate(-499.852 -145.474)" fill="#be6f72"/>
    <circle id="Ellipse_22" data-name="Ellipse 22" cx="2.829" cy="2.829" r="2.829" transform="translate(31.205 3.578)" opacity="0.1"/>
    <path id="Path_307" data-name="Path 307" d="M538.71,210.786H526v-.031l.105-1.837a24.937,24.937,0,0,1,1.934-1.85l7.98-.317.371-.391,1.345.617a2,2,0,0,1,.971,1.858A8.87,8.87,0,0,1,538.71,210.786Z" transform="translate(-498.297 -196.033)" opacity="0.1"/>
    <path id="Path_308" data-name="Path 308" d="M538.71,209.786H526v-.031l.105-1.837a24.937,24.937,0,0,1,1.934-1.85l7.98-.317.371-.391,1.345.617a2,2,0,0,1,.971,1.858A8.869,8.869,0,0,1,538.71,209.786Z" transform="translate(-498.297 -195.097)" fill="#e7c7ca"/>
    <path id="Path_309" data-name="Path 309" d="M582.082,185.736s2.005,2.555,4.676-.053.3,5.816.3,5.816l-5.763.684Z" transform="translate(-550.085 -176.197)" opacity="0.1"/>
    <path id="Path_310" data-name="Path 310" d="M582.082,187.736s2.005,2.555,4.676-.053.3,5.816.3,5.816l-5.763.684Z" transform="translate(-550.085 -178.071)" fill="#e7c7ca"/>
    <path id="Path_311" data-name="Path 311" d="M559.715,201.454l.212,3.236.227,1.077.174.823s.443,6.333.317,6.65.063.57.09.738-.027.592-.006.782,0,.274-.485.206-1.162-.186-1.162-.186a9.026,9.026,0,0,1-2.3-.084,6.752,6.752,0,0,0-1.71-.212s-1.689.042-2.238-.021-.845.676-1.2.464.422-2.258.675-2.85-.338-2.09-.338-2.09l.76-4.216.169-.956v-3l.042-.015a1.042,1.042,0,0,0,.4-.28l.19,3.024,5.953.212v-3.4" transform="translate(-522.217 -191.341)" opacity="0.1"/>
    <path id="Path_312" data-name="Path 312" d="M559.715,199.455l.212,3.236.227,1.077.174.823s.443,6.333.317,6.65.063.57.09.738-.027.592-.006.782,0,.274-.485.206-1.162-.186-1.162-.186a9.026,9.026,0,0,1-2.3-.084,6.752,6.752,0,0,0-1.71-.212s-1.689.042-2.238-.021-.845.676-1.2.464.422-2.258.675-2.85-.338-2.09-.338-2.09l.76-4.216.169-.956v-3l.042-.015a1.042,1.042,0,0,0,.4-.28l.19,3.024,5.953.212v-3.4" transform="translate(-522.217 -189.467)" fill="#e7c7ca"/>
    <path id="Path_313" data-name="Path 313" d="M547.3,50.244a.7.7,0,0,0-.19-.358.778.778,0,0,0-.334-.137,6.61,6.61,0,0,0-.879-.168,1.4,1.4,0,0,0-.19-.395,4.354,4.354,0,0,0-2.619-1.89,1.662,1.662,0,0,0-1.583.436c-.2.245-.284.57-.485.811-.387.467-1.086.525-1.573.887a2.914,2.914,0,0,0-.633.733,2.513,2.513,0,0,0-.468.937c-.127.691.33,1.35.414,2.047.19,1.56-1.482,2.944-1.166,4.483a2.776,2.776,0,0,0,1.871,1.85,1.3,1.3,0,0,1,.789.516c.063.127.074.273.134.4a.8.8,0,0,0,1.212.132,1.888,1.888,0,0,0,.507-1.283c.17-2.049-.651-4.074-.555-6.129a1.807,1.807,0,0,1,.76-1.607c.749-.38,1.65.253,2.475.132a4.91,4.91,0,0,1,.237,3,8.187,8.187,0,0,0-.374,1.64,5.048,5.048,0,0,0,.839,2.4,1.278,1.278,0,0,1,.169.463,1.115,1.115,0,0,1-.091.484,6.825,6.825,0,0,0-.661,1.821.294.294,0,0,0,.047.217.272.272,0,0,0,.163.073c.684.117,1.276-.489,1.609-1.1a5.145,5.145,0,0,0,.635-2.186c.069-1.289-.393-2.558-.365-3.849C547.023,53.137,547.686,51.659,547.3,50.244Z" transform="translate(-509.116 -47.009)" opacity="0.1"/>
    <path id="Path_314" data-name="Path 314" d="M548.3,49.244a.7.7,0,0,0-.19-.358.778.778,0,0,0-.334-.137,6.607,6.607,0,0,0-.879-.168,1.407,1.407,0,0,0-.19-.395,4.353,4.353,0,0,0-2.619-1.89,1.662,1.662,0,0,0-1.583.436c-.2.245-.284.57-.485.811-.387.467-1.086.525-1.573.887a2.917,2.917,0,0,0-.633.733,2.514,2.514,0,0,0-.468.937c-.127.691.33,1.35.414,2.047.19,1.56-1.482,2.944-1.166,4.483a2.776,2.776,0,0,0,1.871,1.85,1.3,1.3,0,0,1,.788.516c.063.127.074.273.134.4a.8.8,0,0,0,1.212.132,1.888,1.888,0,0,0,.507-1.283c.17-2.049-.651-4.074-.555-6.129a1.807,1.807,0,0,1,.76-1.607c.749-.38,1.65.253,2.475.132a4.91,4.91,0,0,1,.237,3,8.187,8.187,0,0,0-.374,1.64,5.048,5.048,0,0,0,.839,2.4,1.277,1.277,0,0,1,.169.463,1.116,1.116,0,0,1-.091.484,6.823,6.823,0,0,0-.661,1.821.3.3,0,0,0,.047.217.273.273,0,0,0,.163.073c.684.117,1.275-.489,1.609-1.1a5.144,5.144,0,0,0,.635-2.186c.069-1.289-.393-2.558-.365-3.849C548.023,52.137,548.686,50.659,548.3,49.244Z" transform="translate(-510.052 -46.073)" fill="#3e373a"/>
    <path id="Path_315" data-name="Path 315" d="M581.79,466.363l2.512.08-.36-1.863-1.925.183Z" transform="translate(-544.944 -435.15)" fill="#c3c7d9"/>
    <path id="Path_316" data-name="Path 316" d="M620.634,408.36c-.169.211-.823.591-.887.718a3.119,3.119,0,0,1-1.246.57,10.372,10.372,0,0,0-1.9.486,18.522,18.522,0,0,1-2.382.63,6.741,6.741,0,0,1-.721.13c-.38.021-4.538-1.393-4.538-1.393l.8-.823.044-.015c.227-.077,1.274-.431,1.856-.6a4.269,4.269,0,0,0,1.415-.971s1.118-.38,1.267-.422-.38-1.478-.38-1.478,2.428-.337,3.378-.623,3.146-.18,3.547.939A4.123,4.123,0,0,1,620.634,408.36Z" transform="translate(-576.003 -381.563)" fill="#4b4b5b"/>
    <path id="Path_317" data-name="Path 317" d="M539.322,489.658a1.482,1.482,0,0,1-.971.465c-.486-.042-2.184.127-2.184.127a3.407,3.407,0,0,0-.856.5c-.4.313-.608.063-.647.01l-.007-.01c-.212.666-.7.158-.7.158a21.441,21.441,0,0,0,.146-2.28c-.065-.253.417-.688.417-.688l.57-.145,1.444-.37,2.069.718Z" transform="translate(-505.753 -459.293)" fill="#e7c7ca"/>
    <path id="Path_318" data-name="Path 318" d="M535.091,493.26l-.427,2.965-.007-.01c-.212.666-.7.158-.7.158a21.442,21.442,0,0,0,.146-2.28c-.065-.253.417-.688.417-.688Z" transform="translate(-505.753 -464.763)" opacity="0.1"/>
    <path id="Path_319" data-name="Path 319" d="M599,360.08a3.456,3.456,0,0,0,2.09,0" transform="translate(-566.674 -340.018)" opacity="0.1"/>
    <path id="Path_320" data-name="Path 320" d="M659.29,371.42a.924.924,0,0,0,.823,0" transform="translate(-623.145 -350.64)" opacity="0.1"/>
    <path id="Path_321" data-name="Path 321" d="M659.29,378.526s.781.1.929-.106" transform="translate(-623.145 -357.196)" opacity="0.1"/>
    <path id="Path_322" data-name="Path 322" d="M655.29,392.193a7.2,7.2,0,0,0,1.831-.443" transform="translate(-619.399 -369.682)" opacity="0.1"/>
    <path id="Path_323" data-name="Path 323" d="M584.62,391.75a3.482,3.482,0,0,0,1.436.443" transform="translate(-553.204 -369.682)" opacity="0.1"/>
    <path id="Path_324" data-name="Path 324" d="M614.21,473.282a6.767,6.767,0,0,1-.721.13c-.38.021-4.538-1.393-4.538-1.393l.8-.823.044-.015c.127.089.231.166.3.224.349.275.686-.084.813-.084a10.257,10.257,0,0,1,1.224.908,3.8,3.8,0,0,1,1.182.443c.169.211.76.169.865.317A.564.564,0,0,1,614.21,473.282Z" transform="translate(-575.993 -444.082)" opacity="0.1"/>
    <path id="Path_325" data-name="Path 325" d="M476.922,406.665a4.591,4.591,0,0,1-1.616-.19c-.591-.249-2.554-.823-3.124-.42s-1.942.76-1.309,2.365.929,1.647.929,1.647a2.288,2.288,0,0,1,.507.526,6.144,6.144,0,0,0,2.407.971,3.68,3.68,0,0,1,2.322.76,4.772,4.772,0,0,0,2.09.845s1.393.57,1.827.7a9.69,9.69,0,0,0,2.881.507c.465-.168.76-1.225.76-1.225s.211-.95.105-1.1-.7-.106-.865-.317a3.8,3.8,0,0,0-1.182-.443,10.212,10.212,0,0,0-1.222-.908c-.127,0-.464.358-.813.084a18.532,18.532,0,0,0-2.186-1.393C477.631,408.649,476.922,406.665,476.922,406.665Z" transform="translate(-446.508 -382.951)" fill="#4b4b5b"/>
    <path id="Path_326" data-name="Path 326" d="M536.27,427.058a1.21,1.21,0,0,1,1.038.274,18.358,18.358,0,0,0,2.212,1.27" transform="translate(-507.916 -402.731)" opacity="0.1"/>
    <path id="Path_327" data-name="Path 327" d="M696.641,427s-2.259.342-2.681.806" transform="translate(-655.619 -402.7)" opacity="0.1"/>
    <path id="Path_328" data-name="Path 328" d="M691.426,490.587h-.1a17.023,17.023,0,0,0-1.8,0c-.274.063-3.906,0-3.906,0l.71-.148s-.263-.923-.1-1c0,0-.95-.626-.234-1.048a2.222,2.222,0,0,1,1.488-.244l1.8-.609.345-.117s2.027.106,2.575,1.5A1.129,1.129,0,0,1,691.426,490.587Z" transform="translate(-647.808 -459.293)" fill="#e7c7ca"/>
    <path id="Path_329" data-name="Path 329" d="M745.649,490.633h-.1c.59-.486,1.923-1.967-2.04-3.046l.345-.117s2.027.106,2.575,1.5A1.125,1.125,0,0,1,745.649,490.633Z" transform="translate(-702.031 -459.34)" opacity="0.1"/>
    <circle id="Ellipse_23" data-name="Ellipse 23" cx="0.111" cy="0.111" r="0.111" transform="translate(39.781 29.43)" fill="#4b4b5b"/>
    <circle id="Ellipse_24" data-name="Ellipse 24" cx="0.111" cy="0.111" r="0.111" transform="translate(39.137 29.613)" fill="#4b4b5b"/>
    <g id="Group_30" data-name="Group 30" transform="translate(28.515 3.99)" opacity="0.1">
      <path id="Path_330" data-name="Path 330" d="M605.41,108.953a4.915,4.915,0,0,0-.364-2.036c-.823.123-1.725-.512-2.475-.132a1.817,1.817,0,0,0-.76,1.607c-.008.164-.009.328-.006.492,0-.058,0-.117.006-.175a1.808,1.808,0,0,1,.76-1.607c.75-.38,1.65.253,2.475.132A4.9,4.9,0,0,1,605.41,108.953Z" transform="translate(-597.816 -106.64)"/>
      <path id="Path_331" data-name="Path 331" d="M551.446,110.718a2.106,2.106,0,0,0-.008-.414c-.067-.557-.372-1.09-.427-1.633-.071.656.346,1.285.427,1.95A.4.4,0,0,1,551.446,110.718Z" transform="translate(-550.231 -108.521)"/>
      <path id="Path_332" data-name="Path 332" d="M543.375,203.193a1.863,1.863,0,0,1-.507,1.284.8.8,0,0,1-1.212-.132c-.063-.127-.073-.274-.134-.4-.141-.29-.486-.4-.788-.516a2.77,2.77,0,0,1-1.87-1.85,1.935,1.935,0,0,1-.034-.247,1.994,1.994,0,0,0,.034.564,2.778,2.778,0,0,0,1.87,1.85c.3.113.648.226.788.516.063.127.074.273.134.4a.8.8,0,0,0,1.212.132,1.888,1.888,0,0,0,.507-1.284,7.23,7.23,0,0,0,.02-.744C543.394,202.91,543.386,203.051,543.375,203.193Z" transform="translate(-538.823 -195.312)"/>
      <path id="Path_333" data-name="Path 333" d="M687.93,109.551v.274c.035-1.178.467-2.362.425-3.516C688.322,107.377,687.954,108.467,687.93,109.551Z" transform="translate(-678.487 -106.31)"/>
      <path id="Path_334" data-name="Path 334" d="M651.778,190.215a.814.814,0,0,0,.015-.229,1.266,1.266,0,0,0-.169-.463,5.691,5.691,0,0,1-.833-2.183c0,.033,0,.063-.005.1a5.043,5.043,0,0,0,.838,2.4,1.52,1.52,0,0,1,.155.375Z" transform="translate(-643.693 -182.208)"/>
      <path id="Path_335" data-name="Path 335" d="M657.236,216.387a5.154,5.154,0,0,1-.639,2.186c-.334.609-.925,1.215-1.61,1.1a.269.269,0,0,1-.163-.074.156.156,0,0,1-.03-.049c-.008.049-.014.1-.018.15a.292.292,0,0,0,.048.216.269.269,0,0,0,.163.074c.685.117,1.276-.489,1.61-1.1a5.155,5.155,0,0,0,.639-2.186c.008-.148.008-.3,0-.443C657.239,216.3,657.239,216.344,657.236,216.387Z" transform="translate(-647.429 -209.297)"/>
    </g>
    <path id="Path_336" data-name="Path 336" d="M695.31,507.236a2.241,2.241,0,0,0,2.66-.816" transform="translate(-656.884 -477.09)" fill="none" stroke="#000" stroke-miterlimit="10" stroke-width="1" opacity="0.1"/>
    <path id="Path_337" data-name="Path 337" d="M700.29,532.141a3.125,3.125,0,0,1,2.977-.028" transform="translate(-661.549 -500.819)" fill="none" stroke="#000" stroke-miterlimit="10" stroke-width="1" opacity="0.1"/>
    <path id="Path_338" data-name="Path 338" d="M561.93,525.2s.55-1.24,2.018-.295" transform="translate(-531.951 -494.069)" fill="none" stroke="#000" stroke-miterlimit="10" stroke-width="1" opacity="0.1"/>
    <path id="Path_339" data-name="Path 339" d="M533.79,226.924l1.121-1.013s4.347-.285,4.526,1.193a5.533,5.533,0,0,1,4.782-1.362l1.371,1.092L541.8,228.5l-3.683,1.277L535.4,228.56Z" transform="translate(-505.594 -214.135)" opacity="0.1"/>
    <path id="Path_340" data-name="Path 340" d="M533.79,227.924l1.121-1.013s4.347-.285,4.526,1.193a5.533,5.533,0,0,1,4.782-1.362l1.371,1.092L541.8,229.5l-3.683,1.277L535.4,229.56Z" transform="translate(-505.594 -215.071)" fill="#d5d6db"/>
    <path id="Path_341" data-name="Path 341" d="M437.38,204.83l.5,5.932,5.257.264-.228-5.907,0-.1Z" transform="translate(-409.679 -191.85)" opacity="0.1"/>
    <path id="Path_342" data-name="Path 342" d="M437.38,202.83l.5,5.932,5.257.264-.228-5.907,0-.1Z" transform="translate(-409.679 -189.977)" fill="#0b3954"/>
    <path id="Path_343" data-name="Path 343" d="M555.133,202.83l-5.423.813V209.6l5.3-.766Z" transform="translate(-514.895 -189.977)" opacity="0.1"/>
    <path id="Path_344" data-name="Path 344" d="M555.133,200.83l-5.423.813V207.6l5.3-.766Z" transform="translate(-514.895 -188.104)" fill="#0b3954"/>
    <path id="Path_345" data-name="Path 345" d="M571.819,223.79l-2.929.326.064,1,2.863-.313Z" transform="translate(-532.861 -209.61)" fill="#fff" opacity="0.3"/>
    <path id="Path_346" data-name="Path 346" d="M536.408,311.943l.3.8a1,1,0,0,0,.928.19,4.742,4.742,0,0,0,1.119-.469,4.241,4.241,0,0,0,.507-1.114,3.947,3.947,0,0,1,.591-1.267c.3-.253,1.077-3.744,0-3.4s-1.9,3.508-1.9,3.508a.751.751,0,0,1-.464.253c-.274.022-.823-.042-.929.19S536.091,311.478,536.408,311.943Z" transform="translate(-507.926 -289.981)" fill="#be6f72"/>
    <path id="Path_347" data-name="Path 347" d="M614.77,253.216a1.824,1.824,0,0,1-1.59-.4l.229,5.906a1.612,1.612,0,0,0,1.362.45Z" transform="translate(-579.956 -239.551)" opacity="0.1"/>
    <path id="Path_348" data-name="Path 348" d="M614.77,251.216a1.824,1.824,0,0,1-1.59-.4l.229,5.906a1.612,1.612,0,0,0,1.362.45Z" transform="translate(-579.956 -237.678)" fill="#0b3954"/>
    <path id="Path_349" data-name="Path 349" d="M614.77,251.216a1.824,1.824,0,0,1-1.59-.4l.229,5.906a1.612,1.612,0,0,0,1.362.45Z" transform="translate(-579.956 -237.678)" opacity="0.1"/>
    <path id="Path_350" data-name="Path 350" d="M640.29,237.864a12.567,12.567,0,0,1,2.781-.579" transform="translate(-605.349 -224.991)" opacity="0.1"/>
    <path id="Path_351" data-name="Path 351" d="M564.425,236.173a10.872,10.872,0,0,0-2.5-.363" transform="translate(-531.951 -223.594)" opacity="0.1"/>
    <path id="Path_352" data-name="Path 352" d="M662.25,242.678s1.475-.541,2.008-.284" transform="translate(-625.918 -229.721)" opacity="0.1"/>
    <path id="Path_353" data-name="Path 353" d="M650.52,445.72a4.846,4.846,0,0,1,.727-.452,11.862,11.862,0,0,0,1.077-.658" transform="translate(-614.931 -419.194)" opacity="0.1"/>
    <path id="Path_354" data-name="Path 354" d="M537.483,360.08a6.828,6.828,0,0,1-1.2.823c-.278.066-.45.657-.45.657" transform="translate(-507.504 -340.018)" opacity="0.1"/>
    <path id="Path_355" data-name="Path 355" d="M656.278,310.191l-.3.8a1,1,0,0,1-.929.19,4.74,4.74,0,0,1-1.119-.469,4.222,4.222,0,0,1-.507-1.114,3.932,3.932,0,0,0-.591-1.267c-.3-.253-1.077-3.744,0-3.4s1.9,3.508,1.9,3.508a.751.751,0,0,0,.464.253c.274.022.823-.042.929.19S656.595,309.728,656.278,310.191Z" transform="translate(-616.585 -288.341)" fill="#be6f72"/>
    <path id="Path_356" data-name="Path 356" d="M707.15,364.94s.6.389.6.854" transform="translate(-667.974 -344.57)" opacity="0.1"/>
    <circle id="Ellipse_25" data-name="Ellipse 25" cx="2.829" cy="2.829" r="2.829" transform="translate(31.215 3.44)" fill="#be6f72"/>
    <path id="Path_357" data-name="Path 357" d="M577.352,86.188a5.8,5.8,0,0,0,.972-.368,3.681,3.681,0,0,1,2.289.151,2.968,2.968,0,0,0,.873.19.884.884,0,0,0,.769-.38.859.859,0,0,0-.005-.794,2.235,2.235,0,0,0-.517-.638,3.34,3.34,0,0,0-2.379-1.14,3.275,3.275,0,0,0-1.046.3,11.528,11.528,0,0,0-1.227.618c-.3.177-.869.413-1.044.736C575.637,85.591,576.731,86.285,577.352,86.188Z" transform="translate(-545.084 -80.678)" fill="#3e373a"/>
    <path id="Path_358" data-name="Path 358" d="M582.251,112.262a.884.884,0,0,1-.769.38,2.97,2.97,0,0,1-.874-.186,3.676,3.676,0,0,0-2.289-.151,5.511,5.511,0,0,1-.972.367,1.365,1.365,0,0,1-1.393-.911c-.1.64.836,1.189,1.393,1.1a5.825,5.825,0,0,0,.972-.367,3.676,3.676,0,0,1,2.289.151,2.851,2.851,0,0,0,.874.186.891.891,0,0,0,.769-.38.742.742,0,0,0,.089-.463.683.683,0,0,1-.089.273Z" transform="translate(-545.081 -107.425)" opacity="0.1"/>
    <path id="Path_359" data-name="Path 359" d="M1022.715,661.63s.376.491-.173,1.232-1,1.367-.819,1.83c0,0,.828-1.377,1.5-1.4S1023.455,662.458,1022.715,661.63Z" transform="translate(-962.585 -622.47)" fill="#0b3954"/>
    <path id="Path_360" data-name="Path 360" d="M1023.032,661.63a.609.609,0,0,1,.077.154c.657.773,1.008,1.494.376,1.512-.589.017-1.3,1.07-1.464,1.336a.623.623,0,0,0,.02.063s.828-1.377,1.5-1.4S1023.773,662.458,1023.032,661.63Z" transform="translate(-962.903 -622.47)" opacity="0.1"/>
    <path id="Path_361" data-name="Path 361" d="M1047.717,669.876c0,.173-.02.313-.043.313s-.044-.14-.044-.313.024-.091.048-.091S1047.717,669.7,1047.717,669.876Z" transform="translate(-986.891 -630.09)" fill="#ffd037"/>
    <path id="Path_362" data-name="Path 362" d="M1048.413,672.968c-.151.082-.284.132-.3.111s.1-.105.253-.19.092-.023.1,0S1048.565,672.885,1048.413,672.968Z" transform="translate(-987.347 -632.976)" fill="#ffd037"/>
    <path id="Path_363" data-name="Path 363" d="M994.2,661.63s-.376.491.174,1.232,1,1.367.818,1.83c0,0-.828-1.377-1.5-1.4S993.464,662.458,994.2,661.63Z" transform="translate(-936.057 -622.47)" fill="#0b3954"/>
    <path id="Path_364" data-name="Path 364" d="M994.2,661.63a.606.606,0,0,0-.077.154c-.657.773-1.008,1.494-.376,1.512.588.017,1.3,1.07,1.464,1.336a.51.51,0,0,1-.02.063s-.828-1.377-1.5-1.4S993.464,662.458,994.2,661.63Z" transform="translate(-936.057 -622.47)" opacity="0.1"/>
    <path id="Path_365" data-name="Path 365" d="M995.64,669.876c0,.173.019.313.043.313s.044-.14.044-.313-.025-.091-.048-.091S995.64,669.7,995.64,669.876Z" transform="translate(-938.193 -630.09)" fill="#ffd037"/>
    <path id="Path_366" data-name="Path 366" d="M990.5,672.968c.151.082.284.132.3.111s-.1-.105-.253-.19-.092-.023-.1,0S990.345,672.885,990.5,672.968Z" transform="translate(-933.29 -632.976)" fill="#ffd037"/>
    <ellipse id="Ellipse_26" data-name="Ellipse 26" cx="3.927" cy="0.602" rx="3.927" ry="0.602" transform="translate(55.211 44.775)" fill="#0b3954" opacity="0.1"/>
    <path id="Path_367" data-name="Path 367" d="M994.441,696.139l-.019.153-.027.217-.011.091-.027.217-.011.091-.026.216-.3,2.464c-.027.22-.386.391-.82.391h-1.561c-.434,0-.792-.172-.82-.391l-.3-2.464-.027-.216-.011-.091-.027-.217-.011-.091-.026-.217-.019-.153c-.015-.127.179-.229.425-.229h3.193C994.262,695.91,994.456,696.015,994.441,696.139Z" transform="translate(-933.283 -654.579)" fill="#65617d"/>
    <path id="Path_368" data-name="Path 368" d="M906.135,658.53l-.026.217h-3.952l-.027-.217Z" transform="translate(-844.995 -616.816)" fill="#9d9cb5"/>
    <path id="Path_369" data-name="Path 369" d="M906.65,663.38l-.026.217h-3.877l-.027-.217Z" transform="translate(-845.548 -621.359)" fill="#9d9cb5"/>
    <path id="Path_370" data-name="Path 370" d="M907.175,668.23l-.027.217h-3.8l-.026-.217Z" transform="translate(-846.11 -625.902)" fill="#9d9cb5"/>
  </g>
</svg>
