<svg xmlns="http://www.w3.org/2000/svg" xmlns:xlink="http://www.w3.org/1999/xlink" width="66.827" height="47.014" viewBox="0 0 66.827 47.014">
  <defs>
    <linearGradient id="linear-gradient" x1="0.5" y1="1" x2="0.5" gradientUnits="objectBoundingBox">
      <stop offset="0" stop-color="gray" stop-opacity="0.251"/>
      <stop offset="0.54" stop-color="gray" stop-opacity="0.122"/>
      <stop offset="1" stop-color="gray" stop-opacity="0.102"/>
    </linearGradient>
    <linearGradient id="linear-gradient-2" x1="0.5" y1="1" x2="0.5" y2="0" xlink:href="#linear-gradient"/>
  </defs>
  <g id="undraw_medicine_b1ol" transform="translate(0.005 0.006)">
    <ellipse id="Ellipse_7" data-name="Ellipse 7" cx="5.853" cy="0.94" rx="5.853" ry="0.94" transform="translate(16.664 45.101)" fill="#0b3954" opacity="0.1"/>
    <ellipse id="Ellipse_8" data-name="Ellipse 8" cx="7.303" cy="0.94" rx="7.303" ry="0.94" transform="translate(47.027 45.128)" fill="#0b3954" opacity="0.1"/>
    <path id="Path_96" data-name="Path 96" d="M59.125,396.83h6.1v8.308H59.571c-.015.085-.029.171-.045.257h5.695v6.7l-.029-.01c-.161-.064-.321-.131-.48-.2l-.1-.046q-.24-.113-.48-.24c-.056-.029-.112-.06-.167-.091a10,10,0,0,1-2.4-1.872c-.02-.02-.04-.041-.06-.06-.1-.106-.193-.213-.285-.322l-.1-.12c-.109-.134-.215-.271-.318-.411-.015-.02-.029-.041-.045-.06a8.942,8.942,0,0,1-1.033-1.868c-.008-.02-.016-.041-.023-.06q-.124-.318-.219-.643c-.028-.091-.054-.18-.077-.274-.008-.028-.016-.055-.022-.082A16.422,16.422,0,0,1,59,401.645v-.48c0-.556.007-1.115.016-1.673,0-.145.006-.289.009-.434q.013-.553.036-1.106c0-.1.008-.2.014-.307a1.738,1.738,0,0,1,.009-.177C59.1,397.253,59.111,397.041,59.125,396.83Z" transform="translate(-57.842 -376.523)" fill="#0b3954" opacity="0.1"/>
    <path id="Path_97" data-name="Path 97" d="M110.244,176.676H106.9a25.343,25.343,0,0,1,1.778-2.448c.5-.61,1.021-1.2,1.565-1.778Z" transform="translate(-102.866 -165.62)" fill="#0b3954" opacity="0.1"/>
    <path id="Path_98" data-name="Path 98" d="M67.477,247.09v8.737H61.4c0-.025,0-.051.006-.076.005-.069.011-.138.017-.207s.014-.162.022-.24.016-.175.025-.262.017-.175.028-.262.019-.174.03-.261.02-.174.032-.261.019-.144.028-.216c.014-.1.028-.2.044-.3a.281.281,0,0,1,.007-.045,20.778,20.778,0,0,1,.447-2.193,16.222,16.222,0,0,1,.754-2.222,16.684,16.684,0,0,1,1.134-2.184Z" transform="translate(-60.098 -235.777)" fill="#0b3954" opacity="0.1"/>
    <path id="Path_99" data-name="Path 99" d="M186.8,78.937v8.309h13.02V78.937Zm0,8.566v7.135c.074.016.148.031.222.043.1.019.2.037.3.052l.06.008.12.017c.1.014.2.025.3.034l.144.013.116.009h0c.063,0,.126.008.187.01.038,0,.077,0,.117,0h.428c.052,0,.1,0,.154,0h0a.809.809,0,0,0,.108,0h.03a.622.622,0,0,0,.089,0h.021l.2-.016.2-.021.137-.016a11.978,11.978,0,0,0,1.649-.351c1.214-.339,2.4-.813,3.616-1.16a7.989,7.989,0,0,1,4.82-.12V87.5Zm13.02-17.816V58.625a16.738,16.738,0,0,0-4.23.5,20.785,20.785,0,0,0-8.79,4.919v5.646h.653v.256H186.8V78.68h13.02V69.943h-9.683v-.256Zm16.723-3.737a5.393,5.393,0,0,1-2.36-.686,27.749,27.749,0,0,1-3.774-2.935,17.329,17.329,0,0,0-9.135-3.63V69.686H219.86l.046-.049Zm1.693-.3,1.8,1.97V65.133a7.123,7.123,0,0,0-1.793.514Zm1.8,30.76V87.5h-3.825c-.01-.038-.02-.076-.032-.115.011.038.021.077.032.115H201.276v6.442c.142.105.282.216.42.328h0c.15.12.3.247.446.371l.15.124c.071.06.144.12.216.177q.216.175.437.346c.073.06.147.114.221.171a30.108,30.108,0,0,0,3.7,2.421q.434.24.876.469c.2.1.394.2.592.3q.447.218.9.42h0a33.085,33.085,0,0,0,8.769,2.554q1.008.149,2.025.234V96.409h0ZM201.276,69.943V78.68h18.758V69.943Zm0,8.994v8.309h18.758V78.937ZM221.49,65.122V67.9l2.291-2.514q-1.139-.184-2.291-.262Zm0,13.817v8.306h18.244V78.937Zm18.177,18.129.064-9.567H221.49v14.449a32.721,32.721,0,0,0,3.526-.042h.02q.841-.053,1.674-.154h.013a30.826,30.826,0,0,0,8.6-2.295M243.252,80.3c-.068-.162-.14-.322-.213-.481-.136-.3-.279-.592-.427-.884h-1.423v8.305h3.6a17.954,17.954,0,0,0-1.534-6.944Zm-2.063,7.2v8.229a11.788,11.788,0,0,0,2.487-3.354,11.532,11.532,0,0,0,1.109-4.875Zm0-10.987v2.162h1.29a23.43,23.43,0,0,0-1.288-2.165Zm-12.373-9.766-.285-.108a26.045,26.045,0,0,0-3.082-.926l-3.506,3.848h0l-.067.071.045.049H234.4a26.693,26.693,0,0,0-5.582-2.938Zm5.95,3.194h-13.02l-.256.234v8.5h18.246V74.563a26,26,0,0,0-4.969-4.62Z" transform="translate(-177.966 -58.63)" fill="#0b3954" opacity="0.1"/>
    <path id="Path_100" data-name="Path 100" d="M67.477,320.46v4.33H61.4c0-.025,0-.051.006-.076.005-.069.011-.138.017-.207s.014-.162.022-.24.016-.175.025-.262.017-.175.028-.262.019-.174.03-.261.02-.174.032-.261.019-.144.028-.216c.014-.1.028-.2.044-.3a.281.281,0,0,1,.007-.045,20.778,20.778,0,0,1,.447-2.194Z" transform="translate(-60.098 -304.74)" fill="#0b3954" opacity="0.1"/>
    <path id="Path_101" data-name="Path 101" d="M59.125,396.83h6.1v8.308H59.571c-.015.085-.029.171-.045.257h5.695v6.7l-.029-.01c-.161-.064-.321-.131-.48-.2l-.1-.046q-.24-.113-.48-.24c-.056-.029-.112-.06-.167-.091a10,10,0,0,1-2.4-1.872c-.02-.02-.04-.041-.06-.06-.1-.106-.193-.213-.285-.322l-.1-.12c-.109-.134-.215-.271-.318-.411-.015-.02-.029-.041-.045-.06a8.942,8.942,0,0,1-1.033-1.868c-.008-.02-.016-.041-.023-.06q-.124-.318-.219-.643c-.028-.091-.054-.18-.077-.274-.008-.028-.016-.055-.022-.082A16.422,16.422,0,0,1,59,401.645v-.48c0-.556.007-1.115.016-1.673,0-.145.006-.289.009-.434q.013-.553.036-1.106c0-.1.008-.2.014-.307a1.738,1.738,0,0,1,.009-.177C59.1,397.253,59.111,397.041,59.125,396.83Z" transform="translate(-57.842 -376.523)" fill="#0b3954" opacity="0.1"/>
    <path id="Path_102" data-name="Path 102" d="M144.143,169.615V177.1H139.56v-7.486h.653V167.08H142.9v2.535Z" transform="translate(-130.726 -157.051)" fill="#0b3954" opacity="0.1"/>
    <rect id="Rectangle_18" data-name="Rectangle 18" width="4.583" height="8.308" transform="translate(8.834 20.307)" fill="#0b3954" opacity="0.1"/>
    <path id="Path_103" data-name="Path 103" d="M186.8,539.44h4.583v6.907a11.965,11.965,0,0,1-1.649.35l-.137.017-.2.021c-.066.007-.135.011-.2.016h-.021c-.029,0-.06,0-.088,0h-.031c-.036,0-.072,0-.108,0h0c-.051,0-.1,0-.154,0h-.425l-.116,0c-.06,0-.125-.007-.187-.011h0l-.115-.008-.144-.013c-.1-.009-.2-.02-.3-.034l-.12-.017-.06-.008c-.1-.016-.2-.032-.3-.052-.074-.013-.147-.028-.222-.043Z" transform="translate(-177.966 -510.567)" fill="#0b3954" opacity="0.1"/>
    <rect id="Rectangle_19" data-name="Rectangle 19" width="3.779" height="8.37" transform="translate(38.288 11.68)" fill="#0b3954" opacity="0.1"/>
    <path id="Path_104" data-name="Path 104" d="M399.338,338.19V346.5H380.58v-3.584h9.991v2.114h4.987V338.19Z" transform="translate(-357.27 -317.883)" fill="#0b3954" opacity="0.1"/>
    <path id="Path_105" data-name="Path 105" d="M446.638,546.553h-.06V552q-1.015-.086-2.024-.234a33.089,33.089,0,0,1-8.773-2.56q-1.209-.544-2.369-1.188a30.233,30.233,0,0,1-3.7-2.421q-.442-.339-.873-.693c-.2-.164-.4-.332-.6-.5-.139-.112-.279-.223-.42-.328v-6.439h14.929c-.01-.038-.02-.077-.031-.115.011.038.022.076.032.115h3.828v8.9Z" transform="translate(-404.51 -508.772)" fill="#0b3954" opacity="0.1"/>
    <path id="Path_106" data-name="Path 106" d="M865.682,195.165H863.22V194.4h1.1V192.12q.144.052.286.108V194.4h1.073Z" transform="translate(-813.759 -184.108)" fill="#0b3954" opacity="0.1"/>
    <path id="Path_107" data-name="Path 107" d="M778.693,255.827H766.6l0,0-.005,0H764.36v-8.37H765v6.186h2.9V249.98h2.4v-2.89h2.463v2.892h2.4v3.664h3.534Z" transform="translate(-720.837 -235.777)" fill="#0b3954" opacity="0.1"/>
    <path id="Path_108" data-name="Path 108" d="M764.36,396.82v8.309h14.333V396.82Zm18.224,18.09.02-6.577h-3.911V405.39H764.36v14.445a32.71,32.71,0,0,0,3.526-.042h.021q.841-.053,1.674-.154h.013a30.828,30.828,0,0,0,8.6-2.295" transform="translate(-720.837 -376.513)" fill="#0b3954" opacity="0.1"/>
    <path id="Path_109" data-name="Path 109" d="M1092.622,539.44h3.344a11.569,11.569,0,0,1-1.109,4.875,11.791,11.791,0,0,1-2.487,3.354v-5.286h.252Z" transform="translate(-1029.145 -510.567)" fill="#0b3954" opacity="0.1"/>
    <path id="Path_110" data-name="Path 110" d="M1099.916,426.494h-3.345V419.55h1.81A17.975,17.975,0,0,1,1099.916,426.494Z" transform="translate(-1033.093 -397.878)" fill="#0b3954" opacity="0.1"/>
    <rect id="Rectangle_20" data-name="Rectangle 20" width="2.025" height="2.624" transform="translate(40.043 14.007)" fill="#0b3954" opacity="0.1"/>
    <rect id="Rectangle_21" data-name="Rectangle 21" width="2.025" height="0.604" transform="translate(40.043 19.446)" fill="#0b3954" opacity="0.1"/>
    <rect id="Rectangle_22" data-name="Rectangle 22" width="2.025" height="1.763" transform="translate(40.043 20.307)" fill="#0b3954" opacity="0.1"/>
    <rect id="Rectangle_23" data-name="Rectangle 23" width="2.025" height="2.624" transform="translate(40.043 24.885)" fill="#0b3954" opacity="0.1"/>
    <rect id="Rectangle_24" data-name="Rectangle 24" width="2.025" height="2.624" transform="translate(40.043 30.324)" fill="#0b3954" opacity="0.1"/>
    <path id="Path_111" data-name="Path 111" d="M708.444,656.184a.328.328,0,0,1,.06,0h-.06v.61H706.42V654.17h2.024Z" transform="translate(-666.377 -618.406)" fill="#0b3954" opacity="0.1"/>
    <path id="Path_112" data-name="Path 112" d="M708.444,744.71v2.027q-1.015-.086-2.024-.234V744.71Z" transform="translate(-666.377 -703.508)" fill="#0b3954" opacity="0.1"/>
    <rect id="Rectangle_25" data-name="Rectangle 25" width="8.677" height="0.193" transform="translate(23.31 28.423)" fill="#0b3954" opacity="0.1"/>
    <rect id="Rectangle_26" data-name="Rectangle 26" width="8.677" height="0.739" transform="translate(23.31 28.872)" fill="#0b3954" opacity="0.1"/>
    <rect id="Rectangle_27" data-name="Rectangle 27" width="8.677" height="1.188" transform="translate(23.31 32.033)" fill="#0b3954" opacity="0.1"/>
    <path id="Path_113" data-name="Path 113" d="M443.067,652.15v1.188H436.28q-.442-.337-.873-.693c-.2-.164-.4-.332-.6-.495Z" transform="translate(-411.08 -616.508)" fill="#0b3954" opacity="0.1"/>
    <path id="Path_114" data-name="Path 114" d="M524,712.212V713.4h-.716q-1.208-.545-2.368-1.189Z" transform="translate(-492.018 -672.96)" fill="#0b3954" opacity="0.1"/>
    <rect id="Rectangle_28" data-name="Rectangle 28" width="1.708" height="1.708" transform="translate(47.05 21.112)" fill="#0b3954" opacity="0.1"/>
    <rect id="Rectangle_29" data-name="Rectangle 29" width="1.708" height="1.708" transform="translate(10.064 13.153)" fill="#0b3954" opacity="0.1"/>
    <rect id="Rectangle_30" data-name="Rectangle 30" width="1.708" height="1.708" transform="translate(10.064 17.121)" fill="#0b3954" opacity="0.1"/>
    <rect id="Rectangle_31" data-name="Rectangle 31" width="1.708" height="1.708" transform="translate(10.064 21.089)" fill="#0b3954" opacity="0.1"/>
    <rect id="Rectangle_32" data-name="Rectangle 32" width="1.708" height="1.708" transform="translate(10.064 25.056)" fill="#0b3954" opacity="0.1"/>
    <rect id="Rectangle_33" data-name="Rectangle 33" width="1.708" height="1.708" transform="translate(10.064 29.024)" fill="#0b3954" opacity="0.1"/>
    <rect id="Rectangle_34" data-name="Rectangle 34" width="1.708" height="1.708" transform="translate(10.064 32.991)" fill="#0b3954" opacity="0.1"/>
    <rect id="Rectangle_35" data-name="Rectangle 35" width="1.708" height="1.708" transform="translate(53.571 21.112)" fill="#0b3954" opacity="0.1"/>
    <rect id="Rectangle_36" data-name="Rectangle 36" width="1.708" height="1.708" transform="translate(47.05 25.325)" fill="#0b3954" opacity="0.1"/>
    <rect id="Rectangle_37" data-name="Rectangle 37" width="1.708" height="1.708" transform="translate(53.571 25.325)" fill="#0b3954" opacity="0.1"/>
    <rect id="Rectangle_38" data-name="Rectangle 38" width="1.708" height="1.708" transform="translate(47.05 29.538)" fill="#0b3954" opacity="0.1"/>
    <rect id="Rectangle_39" data-name="Rectangle 39" width="1.708" height="1.708" transform="translate(53.571 29.538)" fill="#0b3954" opacity="0.1"/>
    <rect id="Rectangle_40" data-name="Rectangle 40" width="1.708" height="1.708" transform="translate(47.05 33.752)" fill="#0b3954" opacity="0.1"/>
    <rect id="Rectangle_41" data-name="Rectangle 41" width="1.708" height="1.708" transform="translate(53.571 33.752)" fill="#0b3954" opacity="0.1"/>
    <rect id="Rectangle_42" data-name="Rectangle 42" width="1.708" height="1.708" transform="translate(47.05 37.965)" fill="#0b3954" opacity="0.1"/>
    <rect id="Rectangle_43" data-name="Rectangle 43" width="1.708" height="1.708" transform="translate(53.571 37.965)" fill="#0b3954" opacity="0.1"/>
    <path id="Path_115" data-name="Path 115" d="M775.83,703.432v-1.1h1.708v.945Z" transform="translate(-728.78 -660.152)" fill="#0b3954" opacity="0.1"/>
    <path id="Path_116" data-name="Path 116" d="M65.24,357v.977h5.846V357Zm.583.916h-.477v-.856h.481Zm.582,0h-.481v-.856H66.4Zm.581,0H66.5v-.856h.481Zm.582,0h-.48v-.856h.48Zm.581,0h-.48v-.856h.48Zm.582,0H68.25v-.856h.481Zm.582,0h-.48v-.856h.48Zm.581,0h-.48v-.856h.48Zm.581,0H70v-.856h.48Zm.581,0h-.48v-.856h.48Z" transform="translate(-63.708 -339.085)" fill="#0b3954" opacity="0.1"/>
    <path id="Path_117" data-name="Path 117" d="M65.24,404.34v.977h5.846v-.977Zm.583.915h-.477V404.4h.481Zm.582,0h-.481V404.4H66.4Zm.581,0H66.5V404.4h.481Zm.582,0h-.48V404.4h.48Zm.581,0h-.48V404.4h.48Zm.582,0H68.25V404.4h.481Zm.582,0h-.48V404.4h.48Zm.581,0h-.48V404.4h.48Zm.581,0H70V404.4h.48Zm.581,0h-.48V404.4h.48Z" transform="translate(-63.708 -383.582)" fill="#0b3954" opacity="0.1"/>
    <path id="Path_118" data-name="Path 118" d="M65.24,451.7v.979h5.846V451.7Zm.583.915h-.477v-.854h.481Zm.582,0h-.481v-.854H66.4Zm.581,0H66.5v-.854h.481Zm.582,0h-.48v-.854h.48Zm.581,0h-.48v-.854h.48Zm.582,0H68.25v-.854h.481Zm.582,0h-.48v-.854h.48Zm.581,0h-.48v-.854h.48Zm.581,0H70v-.854h.48Zm.581,0h-.48v-.854h.48Z" transform="translate(-63.708 -428.097)" fill="#0b3954" opacity="0.1"/>
    <path id="Path_119" data-name="Path 119" d="M65.24,499.06v.976h5.846v-.976Zm.583.915h-.477v-.855h.481Zm.582,0h-.481v-.855H66.4Zm.581,0H66.5v-.855h.481Zm.582,0h-.48v-.855h.48Zm.581,0h-.48v-.855h.48Zm.582,0H68.25v-.855h.481Zm.582,0h-.48v-.855h.48Zm.581,0h-.48v-.855h.48Zm.581,0H70v-.855h.48Zm.581,0h-.48v-.855h.48Z" transform="translate(-63.708 -472.613)" fill="#0b3954" opacity="0.1"/>
    <path id="Path_120" data-name="Path 120" d="M65.66,546.41c.023.092.05.184.077.275v-.213h.481v.854h-.257c.008.02.016.042.023.06h5.5v-.975Zm1.141.915h-.48v-.854h.48Zm.581,0H66.9v-.854h.48Zm.582,0h-.482v-.854h.48Zm.581,0h-.48v-.854h.48Zm.582,0h-.48v-.854h.48Zm.582,0h-.48v-.854h.48Zm.581,0h-.48v-.854h.48Zm.581,0h-.481v-.854h.481Zm.581,0h-.48v-.854h.48Z" transform="translate(-64.102 -517.119)" fill="#0b3954" opacity="0.1"/>
    <path id="Path_121" data-name="Path 121" d="M88.26,593.77c.015.019.029.041.045.06h.318v.41c.034.041.068.082.1.12v-.533h.48v.857h-.195c.019.02.038.041.06.06h3.654v-.975Zm1.526.915h-.481v-.853h.481Zm.582,0h-.48v-.853h.48Zm.582,0H90.47v-.853h.481Zm.581,0h-.48v-.853h.48Zm.581,0h-.481v-.853h.481Zm.581,0h-.48v-.853h.48Z" transform="translate(-85.345 -561.634)" fill="#0b3954" opacity="0.1"/>
    <path id="Path_122" data-name="Path 122" d="M141.65,641.12c.055.031.111.06.167.091v-.03h.48v.27l.1.047v-.318h.48v.52a.151.151,0,0,0,.029.011v-.592Z" transform="translate(-135.528 -606.14)" fill="#0b3954" opacity="0.1"/>
    <path id="Path_123" data-name="Path 123" d="M234,251.776ZM230.3,269.5Zm-3.86-9.02c.011.038.021.077.032.115h0C226.46,260.56,226.45,260.521,226.438,260.483Zm7.56-8.709ZM197.72,242.78v.256H200.4v-.256ZM230.3,269.5Zm-3.86-9.02c.011.038.021.077.032.115h0C226.46,260.56,226.45,260.521,226.438,260.483Zm7.56-8.709ZM230.3,269.5Zm-3.86-9.018c.011.038.021.077.032.115h0C226.46,260.56,226.45,260.521,226.438,260.483Z" transform="translate(-188.231 -231.725)" fill="#0b3954" opacity="0.1"/>
    <path id="Path_124" data-name="Path 124" d="M308.427,231.381s-.237-.033-.237-.378a5.4,5.4,0,0,0-.169-.989h0a3.986,3.986,0,0,0-.349-1.3,4.443,4.443,0,0,1-.462-1.222,2.462,2.462,0,0,0-.135-.688,5.852,5.852,0,0,1-.394-.846c-.181-.426-.935-.721-.935-.721s-1.363-.79-1.749-1.048h0a.593.593,0,0,1-.1-.074c-.067-.088-.36-.09-.36-.09a5.905,5.905,0,0,1-.07-.617.471.471,0,0,0,0-.065,2.078,2.078,0,0,0,.914-1.13c.007-.023.013-.047.02-.07a.2.2,0,0,0,.117-.106,2.2,2.2,0,0,1,.079-.24.9.9,0,0,1,.222-.2.841.841,0,0,0,.231-.684c-.006-.2-.038-.4-.026-.6l0-.05c0-.03.008-.06.013-.089.029-.149.094-.289.13-.437a.562.562,0,0,0-.044-.441.767.767,0,0,0-.6-.243c-.255-.022-.483.007-.647-.205a2.308,2.308,0,0,0-.257-.311c-.034-.031-.36-.231-.36-.244a1.46,1.46,0,0,0-1.018-.078c-.169.049-.329.13-.5.17-.371.088-.8-.007-1.112.2a1.307,1.307,0,0,0-.379.5q-.12.23-.244.46a2.975,2.975,0,0,0-.324.786,1.244,1.244,0,0,0-.022.184h0v.1a.323.323,0,0,0,0,.06c0,.019,0,.025,0,.037s0,.041.008.06.011.053.018.079.007.022.011.033.013.04.021.06.008.021.013.031a.57.57,0,0,0,.031.06l.013.024a.8.8,0,0,0,.055.08c.129.16.318.262.458.413v.067a2.056,2.056,0,0,0,.936,1.679c0,.023,0,.046,0,.069a3.435,3.435,0,0,1-.007.535.252.252,0,0,0-.2-.089.287.287,0,0,0-.077.007l-.005,0h0v.005c-.132.032-.295.17-.45.561,0,0-.473.533-.834.511a3.824,3.824,0,0,0-1.273.555,3.071,3.071,0,0,0-1.081,1.166,8.224,8.224,0,0,1-.383.978l-1.1,2.267h0l-.2,1.8a8.348,8.348,0,0,1,.09.922,8.877,8.877,0,0,0,.462,1.222s1.6,2.81,2.253,2.954l.047-.033a.385.385,0,0,0,.088.033l.135-.095a1.462,1.462,0,0,1-.01.317,8.357,8.357,0,0,0,.191,2.443c.157.355.1,5.009.1,5.009l-.022.411a.173.173,0,0,0,.005.036l-.005.1.016.008a1.157,1.157,0,0,1-.016.391,4.347,4.347,0,0,0-.079.69,15.651,15.651,0,0,0-.237,3.454c.213.578.395,1.211.395,1.211s.225.721.011.844-.824.33-.7.63c.114.277.547,1.021.611,1.13l-.005.057-.088.957a1.2,1.2,0,0,0,.1.365.629.629,0,0,0,.642.4c.06,0,.13-.011.2-.02a8.513,8.513,0,0,0,1.46-.38.6.6,0,0,1-.114-.094h0a.33.33,0,0,1-.1-.24,7.032,7.032,0,0,0-.4-1.208l-.019-.046s.744-.777.62-1.466c0,0-.823-.48-.552-.744a8.388,8.388,0,0,0,.755-1.021s.022-2.832,0-3.255a3.5,3.5,0,0,1,.041-.879c.009-.044.02-.086.031-.129a7.842,7.842,0,0,0,1.132.086c.138,0,.279,0,.42-.008q0,.06.005.13c.031.7.089,1.932.137,2.389.067.655.439,2.421.439,2.421s-.709.455.124,1.577a1.521,1.521,0,0,1-.055.465h0a5.088,5.088,0,0,0-.142.586,1.034,1.034,0,0,0,.007.536c.135.265.946.244.946.244h0l.02,0a1.162,1.162,0,0,1,.858.259,4.442,4.442,0,0,0,2.111.06c.248-.031.414-.06.414-.06a.24.24,0,0,0,.008-.087h0c-.007-.156-.129-.5-.955-.8,0,0-.777-.523-.766-.978h-.106a.847.847,0,0,1,.107,0s-.3-1.111-.18-1.2-.248-1.321-.248-1.321-.213-2.066-.225-2.211a1.259,1.259,0,0,1,.056-.366l-.056-1.133s-.011-.377,0-.5a2.489,2.489,0,0,0-.026-.318c-.005-.042-.011-.086-.017-.129.291-.074.48-.142.48-.142l-.034-3.943a6.307,6.307,0,0,0,.292-2.282c0-.48-.022-.836-.022-.836l.338-.552s.078-.661-.046-.805a.139.139,0,0,1,.015-.189.63.63,0,0,1,.074-.05l-.008-.013a.6.6,0,0,1,.075-.053s-.12-.186-.013-.265c.1.068.191.12.259.162,0,.044-.01.069-.01.069l.029-.06.106.06a8.027,8.027,0,0,0,.518-1.211,3.533,3.533,0,0,1,.36-.811.811.811,0,0,1,.248-.488c.2-.144.157-1.189.157-1.189a2.56,2.56,0,0,1,.192-.766C308.685,231.681,308.427,231.381,308.427,231.381Zm-10.136-.463.01.252-.1-.166Z" transform="translate(-280.25 -208.583)" fill="url(#linear-gradient)"/>
    <path id="Path_125" data-name="Path 125" d="M464.919,488.992l-.13.553s-1.039-.53-1.226-1.2a.762.762,0,0,1,.313-.93l.968.41Z" transform="translate(-438.067 -461.662)" fill="#fff"/>
    <path id="Path_126" data-name="Path 126" d="M464.919,488.992l-.13.553s-1.039-.53-1.226-1.2a.762.762,0,0,1,.313-.93l.968.41Z" transform="translate(-438.067 -461.662)" opacity="0.1"/>
    <path id="Path_127" data-name="Path 127" d="M352.921,792.608a7.469,7.469,0,0,1-1.622.4.617.617,0,0,1-.63-.4,1.206,1.206,0,0,1-.1-.363l.086-.952.046-.507,1.4-.365.2.608.019.046a7.029,7.029,0,0,1,.39,1.2.328.328,0,0,0,.1.237A.57.57,0,0,0,352.921,792.608Z" transform="translate(-331.9 -746.473)" fill="#fff"/>
    <path id="Path_128" data-name="Path 128" d="M431.489,791.137a.241.241,0,0,1-.008.086s-2.055.343-2.476,0a1.114,1.114,0,0,0-.865-.253s-.8.022-.928-.24a1.043,1.043,0,0,1-.007-.533,5.071,5.071,0,0,1,.139-.583l.032-.025.189-.152,2.215-.065h.017c-.011.453.752.972.752.972C431.36,790.643,431.48,790.982,431.489,791.137Z" transform="translate(-403.904 -745.486)" fill="#fff"/>
    <path id="Path_129" data-name="Path 129" d="M431.494,804.061a.242.242,0,0,1-.009.086s-2.055.343-2.475,0a1.113,1.113,0,0,0-.864-.254s-.8.022-.928-.24a1.042,1.042,0,0,1-.007-.533,1.982,1.982,0,0,1,.98.289,2.174,2.174,0,0,0,1.072.575C429.5,804,430.893,804.043,431.494,804.061Z" transform="translate(-403.909 -758.41)" opacity="0.1"/>
    <path id="Path_130" data-name="Path 130" d="M354.481,825.4a7.467,7.467,0,0,1-1.622.4.615.615,0,0,1-.629-.4,1.306,1.306,0,0,0,.762.089,6.806,6.806,0,0,1,1.381-.18A.591.591,0,0,0,354.481,825.4Z" transform="translate(-333.46 -779.267)" opacity="0.1"/>
    <path id="Path_131" data-name="Path 131" d="M388.445,296.6c-.793-.308-1.813-1.326-1.558-1.8a1.064,1.064,0,0,0,.1-.382,3.489,3.489,0,0,0,.007-.541,7.411,7.411,0,0,0-.106-.879s2.475.056,2.331.42a1.363,1.363,0,0,0-.037.5c.011.208.041.443.073.641.043.273.086.481.086.481s-.151.212-.24.223S389.583,297.043,388.445,296.6Z" transform="translate(-365.998 -278.929)" fill="#cf6f80"/>
    <path id="Path_132" data-name="Path 132" d="M353.637,791.074l-.019.02c-.74-.895-1.635.22-1.635.22l-.013-.023.046-.507,1.4-.365.2.608Z" transform="translate(-333.216 -746.473)" opacity="0.1"/>
    <path id="Path_133" data-name="Path 133" d="M432.471,789.4a1.422,1.422,0,0,0-.829.243c-.288.255-1.682.055-1.622,0a.2.2,0,0,0,.031-.091l.189-.152,2.215-.065C432.464,789.37,432.471,789.4,432.471,789.4Z" transform="translate(-406.577 -745.448)" opacity="0.1"/>
    <path id="Path_134" data-name="Path 134" d="M344.99,654.846a1.672,1.672,0,0,0-.091.308,3.526,3.526,0,0,0-.041.875c.022.42,0,3.238,0,3.238a8.623,8.623,0,0,1-.74,1.016c-.265.265.541.741.541.741.12.685-.608,1.458-.608,1.458-.74-.895-1.635.221-1.635.221s-.487-.841-.608-1.141.475-.508.685-.63-.01-.841-.01-.841-.177-.63-.387-1.2a15.725,15.725,0,0,1,.232-3.436,4.433,4.433,0,0,1,.077-.685,1.146,1.146,0,0,0,.016-.389c0-.044-.008-.081-.011-.105s-.005-.036-.005-.036l.008-.014.3-.56S345.135,654.494,344.99,654.846Z" transform="translate(-323.649 -617.927)" fill="#0b3954"/>
    <path id="Path_135" data-name="Path 135" d="M422.312,671a1.434,1.434,0,0,0-.829.24,2.843,2.843,0,0,1-1.622,0c.06-.055.055-.464.055-.464-.817-1.116-.12-1.569-.12-1.569s-.365-1.757-.431-2.409c-.046-.455-.1-1.679-.134-2.377-.013-.3-.021-.507-.021-.507l.668-.135.086-.017,1.611-.323s.044.3.074.546a2.548,2.548,0,0,1,.025.316c-.011.12,0,.5,0,.5l.055,1.127a1.28,1.28,0,0,0-.055.365c.011.144.22,2.2.22,2.2s.365,1.227.24,1.315S422.312,671,422.312,671Z" transform="translate(-396.417 -627.12)" fill="#0b3954"/>
    <path id="Path_136" data-name="Path 136" d="M389.841,293.42a1.364,1.364,0,0,0-.037.5,2.057,2.057,0,0,1-2.187-.041,7.4,7.4,0,0,0-.106-.88S389.985,293.055,389.841,293.42Z" transform="translate(-366.621 -278.929)" opacity="0.1"/>
    <path id="Path_137" data-name="Path 137" d="M377.94,245.735a2.034,2.034,0,0,1-.1.637,2.055,2.055,0,0,1-4.009-.588v-.049a2.055,2.055,0,1,1,4.11,0Z" transform="translate(-353.763 -232.571)" fill="#cf6f80"/>
    <path id="Path_138" data-name="Path 138" d="M388.445,318.824c-.793-.308-1.813-1.326-1.558-1.8a1.064,1.064,0,0,0,.1-.382l1.085.892.671.551.511-1.3c.043.273.086.481.086.481s-.151.212-.24.223S389.583,319.263,388.445,318.824Z" transform="translate(-365.998 -301.149)" opacity="0.1"/>
    <path id="Path_139" data-name="Path 139" d="M332.359,262.641l-.906,15.226-1.182.077-3.061-8.829.5-10.482.106-2.215,1.361,1.118.672.551.526-1.338.977.852Z" transform="translate(-307.106 -241.025)" fill="#0b3954"/>
    <path id="Path_140" data-name="Path 140" d="M354.586,654.921a1.671,1.671,0,0,0-.091.308,8.706,8.706,0,0,1-2.478-.774l-.016-.008.005-.1,0-.05.3-.56S354.73,654.569,354.586,654.921Z" transform="translate(-333.244 -618.002)" opacity="0.1"/>
    <path id="Path_141" data-name="Path 141" d="M419.835,669.726a6.1,6.1,0,0,1-.664.076c-.013-.3-.021-.507-.021-.507l.668-.135Z" transform="translate(-396.361 -632.496)" opacity="0.1"/>
    <path id="Path_142" data-name="Path 142" d="M433.385,664.036a4.662,4.662,0,0,1-1.677.158l-.008-.381,1.611-.323S433.355,663.787,433.385,664.036Z" transform="translate(-408.157 -627.166)" opacity="0.1"/>
    <path id="Path_143" data-name="Path 143" d="M309.788,336.708a8.236,8.236,0,0,1-4.718-.785l.022-.408s.056-4.63-.1-4.985a8.44,8.44,0,0,1-.188-2.431c.088-.276-.32-4.419-.32-4.419L304.418,322l-2.418-.98,1.081-2.254a8.135,8.135,0,0,0,.376-.973,3.043,3.043,0,0,1,1.061-1.16,3.732,3.732,0,0,1,1.249-.553c.354.022.817-.508.817-.508.342-.873.652-.477.652-.477a.779.779,0,0,1-.017.129c-.12.958,1.942,3.985,1.972,4.039h0l.2,4.785.2,6.055Z" transform="translate(-286.247 -299.611)" opacity="0.1"/>
    <path id="Path_144" data-name="Path 144" d="M308.66,336.652a8.239,8.239,0,0,1-4.719-.785l.022-.408s.056-4.63-.1-4.985a8.4,8.4,0,0,1-.187-2.431c.088-.276-.32-4.419-.32-4.419l-.067-1.682-2.419-.983,1.081-2.254a8.258,8.258,0,0,0,.376-.973,3.038,3.038,0,0,1,1.061-1.16,3.734,3.734,0,0,1,1.248-.553c.353.022.817-.508.817-.508.343-.873.721-.478.721-.478,0,.041-.036.06-.017.129a40.311,40.311,0,0,0,1.906,4.039h0l.2,4.785.2,6.055Z" transform="translate(-285.185 -299.555)" fill="#fff"/>
    <path id="Path_145" data-name="Path 145" d="M384.009,321.514a16.818,16.818,0,0,1-1.668-1.712v-.365c-.051-.12-.354-.047-.6.037l.106-2.215.12.1A39.441,39.441,0,0,0,384.009,321.514Z" transform="translate(-361.198 -301.732)" opacity="0.1"/>
    <path id="Path_146" data-name="Path 146" d="M385.109,319.3a16.768,16.768,0,0,1-1.669-1.712v-.365c-.051-.12-.354-.047-.6.037l.106-2.215.12.1A39.743,39.743,0,0,0,385.109,319.3Z" transform="translate(-362.232 -299.655)" fill="#fff"/>
    <path id="Path_147" data-name="Path 147" d="M351,516.127c.033,0,1.712-.177,1.712-.177a9.9,9.9,0,0,1,.95,2.486c-.067.487-.187.917-.6.841a18.152,18.152,0,0,0-2.2.06Z" transform="translate(-332.173 -488.488)" opacity="0.1"/>
    <path id="Path_148" data-name="Path 148" d="M349.885,513.917c.033,0,1.712-.177,1.712-.177a9.937,9.937,0,0,1,.95,2.486c-.066.486-.188.917-.6.841a18.157,18.157,0,0,0-2.2.06Z" transform="translate(-331.129 -486.411)" fill="#fff"/>
    <path id="Path_149" data-name="Path 149" d="M358.7,501.05s1.541.828,1.574,1.081-.784-.111-.961-.154a2.2,2.2,0,0,0-.354-.055l-1.178.032Z" transform="translate(-338.677 -474.483)" fill="#cf6f80"/>
    <circle id="Ellipse_9" data-name="Ellipse 9" cx="0.162" cy="0.162" r="0.162" transform="translate(22.218 19.561)" opacity="0.1"/>
    <circle id="Ellipse_10" data-name="Ellipse 10" cx="0.162" cy="0.162" r="0.162" transform="translate(22.218 19.495)" fill="#3f3d56"/>
    <circle id="Ellipse_11" data-name="Ellipse 11" cx="0.162" cy="0.162" r="0.162" transform="translate(22.517 26.581)" opacity="0.1"/>
    <circle id="Ellipse_12" data-name="Ellipse 12" cx="0.162" cy="0.162" r="0.162" transform="translate(22.517 26.515)" fill="#3f3d56"/>
    <circle id="Ellipse_13" data-name="Ellipse 13" cx="0.162" cy="0.162" r="0.162" transform="translate(22.38 23.071)" opacity="0.1"/>
    <circle id="Ellipse_14" data-name="Ellipse 14" cx="0.162" cy="0.162" r="0.162" transform="translate(22.38 23.005)" fill="#3f3d56"/>
    <path id="Path_150" data-name="Path 150" d="M429.926,330.639s.111.166,0,.243.011.265.011.265-.276.162-.154.307.044.8.044.8l-.332.549s.02.354.021.832a6.392,6.392,0,0,1-.286,2.273l.034,3.923a5.339,5.339,0,0,1-2.133.295l-.144-6.295s.21-3.569.288-4.254a7.129,7.129,0,0,0,.055-1.072,11.974,11.974,0,0,0-.144-1.569s-.12-2.154-.132-2.751c-.005-.285.01-1.118.026-1.909.019-.865.04-1.682.04-1.682l-.219-1.735s.219-.022.285.066a.629.629,0,0,0,.1.074h0c.378.256,1.715,1.043,1.715,1.043s.74.294.917.716a6.248,6.248,0,0,0,.386.841,2.6,2.6,0,0,1,.133.685,4.437,4.437,0,0,0,.453,1.215,4.04,4.04,0,0,1,.344,1.3l-1.757,1.381s-.154,2.3-.187,2.387S429.926,330.639,429.926,330.639Z" transform="translate(-403.645 -303.234)" fill="#fff"/>
    <path id="Path_151" data-name="Path 151" d="M429.927,330.34s.11.166,0,.243.01.265.01.265-.274.163-.154.309.044.8.044.8l-.332.549s.02.354.022.832a6.392,6.392,0,0,1-.286,2.273l.033,3.923a5.348,5.348,0,0,1-2.133.295l-.144-6.295s.21-3.57.288-4.254a7.065,7.065,0,0,0,.055-1.072,12.053,12.053,0,0,0-.144-1.569s-.12-2.154-.133-2.751c-.005-.285.01-1.118.026-1.909.019-.866.04-1.682.04-1.682l-.289-1.758s.289,0,.356.089a.571.571,0,0,0,.1.074h0c.378.256,1.716,1.043,1.716,1.043s.739.294.917.716a6.141,6.141,0,0,0,.387.841,2.565,2.565,0,0,1,.132.685,4.437,4.437,0,0,0,.453,1.215,4.02,4.02,0,0,1,.342,1.293l-1.757,1.381s-.154,2.3-.188,2.387S429.927,330.34,429.927,330.34Z" transform="translate(-403.58 -302.935)" fill="#fff"/>
    <path id="Path_152" data-name="Path 152" d="M428.866,322.866l.159.462-.835.841c.019-.865.04-1.682.04-1.682l-.289-1.758s.289,0,.356.089a.546.546,0,0,0,.1.073h0l.71,2.048Z" transform="translate(-404.623 -304.994)" opacity="0.1"/>
    <path id="Path_153" data-name="Path 153" d="M427.756,320.656l.159.462-.835.841c.019-.866.04-1.682.04-1.682l-.29-1.758s.29,0,.356.09a.6.6,0,0,0,.1.074h0l.711,2.048Z" transform="translate(-403.58 -302.916)" fill="#fff"/>
    <path id="Path_154" data-name="Path 154" d="M377.94,245.735a2.034,2.034,0,0,1-.1.637.086.086,0,0,1-.065-.016,2.651,2.651,0,0,0-.609-1.48,1.555,1.555,0,0,0-.33-.342.646.646,0,0,0-.448-.127c-.18.025-.339.147-.521.163-.24.02-.455-.147-.694-.155a.682.682,0,0,0-.51.237,1.4,1.4,0,0,0-.273.507,2.966,2.966,0,0,0-.153.875c0,.168-.019.379-.175.44a.9.9,0,0,0-.226-.685l0,0v-.049a2.055,2.055,0,1,1,4.11,0Z" transform="translate(-353.763 -232.571)" opacity="0.1"/>
    <path id="Path_155" data-name="Path 155" d="M366.912,221.464a1.415,1.415,0,0,0-1-.078c-.166.049-.323.129-.492.169-.36.087-.781-.007-1.09.2a1.3,1.3,0,0,0-.371.494l-.24.458a2.968,2.968,0,0,0-.318.781,1,1,0,0,0,.153.806c.127.162.315.263.453.415a.9.9,0,0,1,.226.685c.157-.06.172-.271.175-.44a2.967,2.967,0,0,1,.153-.874,1.394,1.394,0,0,1,.273-.507.683.683,0,0,1,.51-.237c.24.008.456.174.694.154.18-.015.34-.138.521-.162a.644.644,0,0,1,.448.127,1.539,1.539,0,0,1,.33.342,2.645,2.645,0,0,1,.61,1.48c.068.05.166-.015.2-.092a2.2,2.2,0,0,1,.077-.24.886.886,0,0,1,.217-.193.85.85,0,0,0,.227-.68,3.385,3.385,0,0,1-.008-.74c.028-.149.092-.288.127-.435a.57.57,0,0,0-.043-.439.74.74,0,0,0-.593-.24c-.25-.022-.474.006-.634-.2a2.3,2.3,0,0,0-.252-.309C367.233,221.675,366.912,221.477,366.912,221.464Z" transform="translate(-343.939 -211.563)" fill="#512e4e"/>
    <path id="Path_156" data-name="Path 156" d="M300.586,416.29l-.628-1.16-.2,1.79a8.3,8.3,0,0,1,.088.917,8.821,8.821,0,0,0,.453,1.215s1.569,2.8,2.21,2.939l2.165-1.547-.574-.729s-.2-.078-.249,0c0,0-1.066-1.834-1.177-1.967a.663.663,0,0,1-.089-.4s-.166-.177-.111-.342-.32-.741-.32-.741l.342-.32Z" transform="translate(-284.142 -393.724)" opacity="0.1"/>
    <path id="Path_157" data-name="Path 157" d="M297.915,412.93l-.166.132-.2,1.79a8.3,8.3,0,0,1,.088.917,8.81,8.81,0,0,0,.453,1.215s1.569,2.8,2.21,2.94l2.166-1.547-.575-.729s-.2-.077-.249,0c0,0-1.066-1.834-1.177-1.967a.66.66,0,0,1-.088-.4s-.166-.177-.111-.342-.321-.741-.321-.741l.342-.32Z" transform="translate(-282.065 -391.656)" fill="#fff"/>
    <path id="Path_158" data-name="Path 158" d="M455.28,512.97c.12.146.044.8.044.8l-.332.549s.02.354.021.832l-.557.174a.331.331,0,0,1-.429-.326l.1-3.1,1.3.5c-.111.077.011.265.011.265S455.159,512.824,455.28,512.97Z" transform="translate(-429.143 -484.681)" opacity="0.1"/>
    <path id="Path_159" data-name="Path 159" d="M456.381,511.869c.12.146.044.8.044.8l-.332.549s.02.354.022.832l-.568.177a.324.324,0,0,1-.42-.32l.1-3.109,1.3.5c-.111.077.01.265.01.265S456.261,511.724,456.381,511.869Z" transform="translate(-430.178 -483.647)" fill="#fff"/>
    <path id="Path_160" data-name="Path 160" d="M466.89,496.431s-.088.564-.309.6-.32.912-.541.881-.074-.817-.067-.97-.24-.784-.055-.928.773,0,.773,0Z" transform="translate(-440.256 -469.687)" fill="#cf6f80"/>
    <path id="Path_161" data-name="Path 161" d="M463.812,418.531l.417-.841a5.459,5.459,0,0,1,.166.983c0,.342.232.376.232.376s.254.3.12.519a2.519,2.519,0,0,0-.188.763s.044,1.038-.155,1.182a.8.8,0,0,0-.24.487,3.524,3.524,0,0,0-.354.807,8.008,8.008,0,0,1-.508,1.2,1.7,1.7,0,0,0-1.226-1.867s-.011-.443.1-.564.283-.177.175-.79a7.162,7.162,0,0,1-.031-1.493,9.4,9.4,0,0,1,.332-1.065Z" transform="translate(-436.707 -396.13)" opacity="0.1"/>
    <path id="Path_162" data-name="Path 162" d="M465.957,415.69l.364.12a5.441,5.441,0,0,1,.166.983c0,.342.232.376.232.376s.254.3.12.519a2.512,2.512,0,0,0-.187.763s.044,1.038-.155,1.182a.815.815,0,0,0-.243.487,3.525,3.525,0,0,0-.353.807,8,8,0,0,1-.509,1.2,1.7,1.7,0,0,0-1.226-1.867s-.011-.443.1-.564.283-.177.175-.79a7.163,7.163,0,0,1-.031-1.493,9.4,9.4,0,0,1,.332-1.065Z" transform="translate(-438.672 -394.25)" fill="#fff"/>
    <path id="Path_163" data-name="Path 163" d="M360.15,775.49s.58-.365.961-.1S360.15,775.49,360.15,775.49Z" transform="translate(-340.905 -732.255)" opacity="0.1"/>
    <path id="Path_164" data-name="Path 164" d="M435.21,759.739a1.175,1.175,0,0,1,.945.4C436.586,760.6,435.21,759.739,435.21,759.739Z" transform="translate(-411.456 -717.632)" opacity="0.1"/>
    <g id="Group_29" data-name="Group 29" transform="translate(19.44 11.086)" opacity="0.1">
      <path id="Path_165" data-name="Path 165" d="M381.887,253.868a.891.891,0,0,0-.218.194,2.2,2.2,0,0,0-.077.24c-.034.078-.132.142-.2.092a2.656,2.656,0,0,0-.61-1.481,1.539,1.539,0,0,0-.33-.342.646.646,0,0,0-.449-.127c-.18.025-.339.147-.521.162-.24.02-.456-.146-.694-.154a.68.68,0,0,0-.509.237,1.391,1.391,0,0,0-.273.506,2.97,2.97,0,0,0-.153.875c0,.168-.019.377-.174.439a.824.824,0,0,1,0,.133c.156-.06.172-.271.175-.44a2.966,2.966,0,0,1,.153-.875,1.394,1.394,0,0,1,.273-.507.682.682,0,0,1,.509-.237c.24.008.456.174.694.154.18-.015.34-.138.521-.162a.646.646,0,0,1,.449.127,1.538,1.538,0,0,1,.33.342,2.649,2.649,0,0,1,.61,1.48c.068.05.166-.015.2-.092a2.326,2.326,0,0,1,.077-.24.889.889,0,0,1,.218-.193.85.85,0,0,0,.227-.68V253.3A.789.789,0,0,1,381.887,253.868Z" transform="translate(-376.821 -251.893)"/>
      <path id="Path_166" data-name="Path 166" d="M364.016,261.286c-.138-.152-.327-.253-.453-.414a.879.879,0,0,1-.175-.492.925.925,0,0,0,.175.624c.127.162.315.263.453.415a.9.9,0,0,1,.226.536.9.9,0,0,0-.226-.668Z" transform="translate(-363.385 -259.354)"/>
      <path id="Path_167" data-name="Path 167" d="M451.162,243.419c-.035.147-.1.287-.127.435a1.388,1.388,0,0,0-.019.3,1.164,1.164,0,0,1,.019-.171c.029-.149.092-.288.127-.435a.739.739,0,0,0,.02-.249A.83.83,0,0,1,451.162,243.419Z" transform="translate(-445.751 -243.3)"/>
    </g>
    <ellipse id="Ellipse_15" data-name="Ellipse 15" cx="5.853" cy="0.94" rx="5.853" ry="0.94" transform="translate(2.571 43.797)" fill="#0b3954" opacity="0.1"/>
    <rect id="Rectangle_44" data-name="Rectangle 44" width="0.377" height="8.479" transform="translate(8.235 26.73)" fill="#535461"/>
    <path id="Path_168" data-name="Path 168" d="M142.555,635.505l-.023.382-.034.541-.014.225-.033.541-.014.225-.034.541-.38,6.131a1.039,1.039,0,0,1-1.037.974h-1.974a1.038,1.038,0,0,1-1.036-.974l-.378-6.135-.034-.541-.014-.225-.034-.541-.014-.225-.034-.541-.024-.382a.541.541,0,0,1,.541-.571h4.037a.537.537,0,0,1,.531.575Z" transform="translate(-131.576 -600.322)" fill="#3f3d56"/>
    <path id="Path_169" data-name="Path 169" d="M95.643,592.24l-.034.539h-5l-.034-.539Z" transform="translate(-84.688 -556.674)" fill="#9d9cb5"/>
    <path id="Path_170" data-name="Path 170" d="M96.338,604.95l-.033.539H91.4l-.034-.539Z" transform="translate(-85.431 -568.621)" fill="#9d9cb5"/>
    <path id="Path_171" data-name="Path 171" d="M97.033,617.68l-.033.539H92.194l-.034-.539Z" transform="translate(-86.173 -580.586)" fill="#9d9cb5"/>
    <path id="Path_172" data-name="Path 172" d="M52.585,530.437a9.791,9.791,0,0,1,3.108,4.069,8.881,8.881,0,0,1-7.943-5.746A9.766,9.766,0,0,1,52.585,530.437Z" transform="translate(-47.268 -500.529)" fill="#0b3954"/>
    <path id="Path_173" data-name="Path 173" d="M47.72,528.76a14.233,14.233,0,0,1,3.624,2.783c.88,1.261,4.322,2.962,4.322,2.962" transform="translate(-47.24 -500.529)" fill="none" stroke="#535461" stroke-miterlimit="10" stroke-width="2"/>
    <path id="Path_174" data-name="Path 174" d="M110.632,489.173a5.333,5.333,0,0,1,1.693,2.214A4.834,4.834,0,0,1,108,488.26,5.318,5.318,0,0,1,110.632,489.173Z" transform="translate(-103.899 -462.461)" fill="#0b3954"/>
    <path id="Path_175" data-name="Path 175" d="M108,488.26a7.748,7.748,0,0,1,1.972,1.515,8.854,8.854,0,0,0,2.353,1.612" transform="translate(-103.899 -462.461)" fill="none" stroke="#535461" stroke-miterlimit="10" stroke-width="2"/>
    <path id="Path_176" data-name="Path 176" d="M182.851,508.162a7.356,7.356,0,0,0-1.661,3.476,6.685,6.685,0,0,0,4.965-5.458A7.362,7.362,0,0,0,182.851,508.162Z" transform="translate(-172.693 -479.305)" fill="#0b3954"/>
    <path id="Path_177" data-name="Path 177" d="M186.156,506.19a10.721,10.721,0,0,0-2.24,2.609c-.454,1.064-2.726,2.849-2.726,2.849" transform="translate(-172.693 -479.314)" fill="none" stroke="#535461" stroke-miterlimit="10" stroke-width="2"/>
    <path id="Path_178" data-name="Path 178" d="M835.95,279.708s-.992-4.934-.612-5.547c0,0,.014-.571-.009-1.3v-.083a1.848,1.848,0,0,0,.208.12,1.687,1.687,0,0,0,1.135.147l-.3-.335a.554.554,0,0,1-.163-.272.571.571,0,0,1,.065-.294,2.044,2.044,0,0,0-.249-2.177c-.464-.463-.577-1.06-1.081-1.482a3.124,3.124,0,0,1-.762-1.2,6.759,6.759,0,0,1-.417-1.137c-.072-.307-.1-.625-.2-.924a1.176,1.176,0,0,0-.575-.725,2.17,2.17,0,0,1-.312-.138,1.349,1.349,0,0,1-.288-.338c-.455-.6-1.977-.247-2.7,0a1.517,1.517,0,0,0-.533.3l.007-.011.018-.027a.946.946,0,0,0-.2.225,5.38,5.38,0,0,0-.237.541c-.106.213-.694.808-.441,1.048a.215.215,0,0,0,.06.038.52.52,0,0,0,.3.03l-.011.026a1.754,1.754,0,0,0-.13.666,1.8,1.8,0,0,0,1.819,1.787,1.837,1.837,0,0,0,.557-.086c0,.023.008.046.012.068a.2.2,0,0,0,0,.027h0l-.032.044-.005-.008L829.936,270c-.144.1-.974.7-1.021,1.153-.049.493-.1,1.07-.1,1.07l-.007.124a.371.371,0,0,1-.3.081c-.294-.048-.294,1.081-.294,1.081s-.2.18-.33.024-.49.373-.49.373l-2.228.1h0l-.051,0-.12-.372a.157.157,0,0,0-.2-.1l-.027.011-.008,0-.016.011-.008.007-.012.013-.007.008,0,0h0a.151.151,0,0,0-.022.135l.1.319c-.43.086-.87.33-.511,1l-1.818-.336.588.494,3.036.626c-.04.072-.014.177.112.324a3.1,3.1,0,0,0,1.922.852,3.412,3.412,0,0,0,.39.661l-.034.633s-1,4.821-1.187,5.065a2.85,2.85,0,0,0,.254-.335c-.291.99-.7,2.346-.805,2.549-.172.324-.331,1.637-.135,1.721a1.649,1.649,0,0,0,.477-.005v.109l-.011,4.12a19.967,19.967,0,0,1-.086,2.768,2.355,2.355,0,0,0-.171.746,7.32,7.32,0,0,1-.969,1.4l-.01.008-.013-.094a2.044,2.044,0,0,1-1.654.613s-.685.446.331.47,2.314-.036,2.314-.036.906-1.381,1.666-1.2v1.047h.232V296.18a.953.953,0,0,0,.414-.626.762.762,0,0,0-.271-.7.451.451,0,0,1-.148-.329l-.008.007a.624.624,0,0,0-.008-.065,5.994,5.994,0,0,1,.145-2.481,6.61,6.61,0,0,0,.232-3.646,8.391,8.391,0,0,1-.234-.914c-.007-.039-.014-.076-.02-.111a4.736,4.736,0,0,1,.6.12,16.74,16.74,0,0,0,3.446.213c0,.035.007.072.011.108a3.928,3.928,0,0,0,.142.752,19.156,19.156,0,0,1,.233,2.6,13.747,13.747,0,0,1,.094,2.451c-.06.394-.12.79-.154,1.187v.008s-.338.961-.584,1.483l-.019.039a.78.78,0,0,0-.193.043s-.331.661-.661.77-.22.469.526.337,1.874-.24,1.874-.24l.049-.674.229-.287-.06.672.244-.048-.032-.817.375-.47s.453-.4-.22-1.2v.017c-.007-.011-.014-.023-.022-.035v0a1.283,1.283,0,0,1-.038-1.068c.294-1.034.465-1.973.465-1.973s.657-2.515-.133-3.7h.035a2,2,0,0,1-.17-.529c0-.022-.008-.044-.011-.067a4.335,4.335,0,0,0,1.626-.368S836.183,280.658,835.95,279.708Zm-7.42-4.162v.012l-.12.006Zm-.412.057a.133.133,0,0,0-.054.026.534.534,0,0,0-.094.247l-.187-.042s-.132-.028-.321-.06l-.09-.09C827.619,275.663,827.875,275.633,828.119,275.6Z" transform="translate(-775.456 -251.381)" fill="url(#linear-gradient-2)"/>
    <path id="Path_179" data-name="Path 179" d="M971.391,741.65l-.071.851.24-.048-.036-.923Z" transform="translate(-912.529 -696.998)" fill="#1d2366"/>
    <path id="Path_180" data-name="Path 180" d="M877.581,655.145a6.081,6.081,0,0,0-.142,2.473c.024.2.046.321.046.321s-.432.984-.468,1.021-1.271.791-1.271.791l-.863.5s-.876-.384-.456-.516a.638.638,0,0,0,.226-.154,7.25,7.25,0,0,0,.948-1.392,2.4,2.4,0,0,1,.168-.744,20.265,20.265,0,0,0,.084-2.758l.01-4.105v-.535l1.643.012a3.713,3.713,0,0,0,.071.541,8.259,8.259,0,0,0,.229.911A6.683,6.683,0,0,1,877.581,655.145Z" transform="translate(-824.186 -614.534)" fill="#ffb0b1"/>
    <path id="Path_181" data-name="Path 181" d="M877.485,776.39s-.432.984-.468,1.021-1.271.791-1.271.791l-.863.5s-.876-.384-.456-.516a.635.635,0,0,0,.226-.154l.037.263.288-.012,2.463-2.216C877.463,776.268,877.485,776.39,877.485,776.39Z" transform="translate(-824.186 -732.985)" opacity="0.1"/>
    <path id="Path_182" data-name="Path 182" d="M853.579,777l-2.476,2.231-.288.012-.06-.42a1.988,1.988,0,0,1-1.622.611s-.672.444.324.468,2.266-.036,2.266-.036.888-1.381,1.631-1.2v1.043h.228v-1.053a.948.948,0,0,0,.4-.625.765.765,0,0,0-.265-.7A.453.453,0,0,1,853.579,777Z" transform="translate(-800.31 -733.859)" fill="#1d2366"/>
    <path id="Path_183" data-name="Path 183" d="M988.646,655.728a1.3,1.3,0,0,0,.037,1.064v0a1.967,1.967,0,0,1,.287.7l.01.054-1.127,1.643-.611.24s-.983-.336-.8-.432a.921.921,0,0,0,.2-.321c.24-.52.572-1.478.572-1.478V657.2c.035-.4.09-.79.151-1.183a13.947,13.947,0,0,0-.092-2.442,19.489,19.489,0,0,0-.228-2.59,3.957,3.957,0,0,1-.14-.747c-.032-.3-.04-.548-.04-.548s.648-.9,1.834.072a1.3,1.3,0,0,1,.248.269c.82,1.166.16,3.736.16,3.736S988.933,654.7,988.646,655.728Z" transform="translate(-929.555 -613.834)" fill="#ffb0b1"/>
    <path id="Path_184" data-name="Path 184" d="M989.009,774.493l-1.127,1.643-.611.24s-.983-.336-.8-.432a.92.92,0,0,0,.2-.321.777.777,0,0,1,.632.393l.527-.084a10.187,10.187,0,0,1,.852-1.451c.156-.083.024-.624.024-.624v-.138l.013.015v0a1.966,1.966,0,0,1,.287.7Z" transform="translate(-929.583 -730.776)" opacity="0.1"/>
    <path id="Path_185" data-name="Path 185" d="M974.646,776.6a.734.734,0,0,0-.876-.348s-.324.661-.647.768-.216.467.516.336,1.834-.24,1.834-.24l.048-.672.744-.947s.443-.4-.216-1.193v.138s.132.541-.024.624a10.152,10.152,0,0,0-.849,1.451Z" transform="translate(-916.898 -731.321)" fill="#1d2366"/>
    <path id="Path_186" data-name="Path 186" d="M901.785,650.042a3.729,3.729,0,0,0,.071.541,7.535,7.535,0,0,0-1.715-.017v-.535Z" transform="translate(-848.461 -614.515)" opacity="0.1"/>
    <path id="Path_187" data-name="Path 187" d="M995.947,650.166s-.961.047-2.107.057c-.032-.3-.04-.548-.04-.548s.648-.9,1.834.072a1.308,1.308,0,0,1,.248.269A1.486,1.486,0,0,0,995.947,650.166Z" transform="translate(-936.496 -613.824)" opacity="0.1"/>
    <path id="Path_188" data-name="Path 188" d="M899.237,485.414a30.235,30.235,0,0,1-5.492-.156,10.292,10.292,0,0,0-2.746-.132c-.192-.083-.036-1.391.132-1.715s1.091-3.6,1.091-3.6l.888-4.628.935-.258.066-.019,1.63-.449,1.194-.33s2.374,9.269,2.171,9.953a1.749,1.749,0,0,0-.035.8A2,2,0,0,0,899.237,485.414Z" transform="translate(-839.786 -449.18)" fill="#1d2366"/>
    <path id="Path_189" data-name="Path 189" d="M869.076,439s-.841.9-.2,1.4a.746.746,0,0,0,1.055.048Z" transform="translate(-818.847 -416.16)" fill="#c7daf5"/>
    <path id="Path_190" data-name="Path 190" d="M869.076,439s-.841.9-.2,1.4a.746.746,0,0,0,1.055.048Z" transform="translate(-818.847 -416.16)" opacity="0.1"/>
    <path id="Path_191" data-name="Path 191" d="M960.959,314.68s-.1.094-.247.232c-.211.2-.524.487-.8.729-.384.335-.7.58-.588.371a1.619,1.619,0,0,0,.035-.917c0-.023-.008-.046-.012-.068a6.3,6.3,0,0,0-.186-.742,12.842,12.842,0,0,1,.965-1.119c.128-.12.217-.169.223-.086a2.789,2.789,0,0,0,.195.623l.01.025c.07.18.148.365.217.525C960.875,314.5,960.959,314.68,960.959,314.68Z" transform="translate(-903.937 -297.764)" fill="#ffb0b1"/>
    <path id="Path_192" data-name="Path 192" d="M960.552,313.739a1.783,1.783,0,0,1-1.194,1.367,6.253,6.253,0,0,0-.2-.81s1.169-1.511,1.188-1.2A2.855,2.855,0,0,0,960.552,313.739Z" transform="translate(-903.937 -297.775)" opacity="0.1"/>
    <path id="Path_193" data-name="Path 193" d="M925.319,350.663l.151-.213s.1.611.469.342.387,2.03.387,2.03l-.4,5.918-2.86-.171.081-2.86.324-1.441.8-2.1.476-.693Z" transform="translate(-870.014 -332.928)" opacity="0.1"/>
    <path id="Path_194" data-name="Path 194" d="M926.354,353.384l-.36,5.351-.038.567-1.595-.1-.06,0-1.2-.072.081-2.86.324-1.442.8-2.1.476-.693.567-.819.151-.213s.1.611.469.342l.008-.005h0C926.337,351.118,926.354,353.384,926.354,353.384Z" transform="translate(-870.042 -333.455)" fill="#1d2366"/>
    <path id="Path_195" data-name="Path 195" d="M872.507,406.26a.438.438,0,0,1-.432.252c-.288-.049-.288,1.081-.288,1.081s-.192.18-.324.024-.481.372-.481.372l-2.183.1a1.621,1.621,0,0,1,.781,1.787s3.3-.2,3.406-.516A21.081,21.081,0,0,0,872.507,406.26Z" transform="translate(-819.004 -385.386)" fill="#fff"/>
    <path id="Path_196" data-name="Path 196" d="M872.507,406.26a.438.438,0,0,1-.432.252c-.288-.049-.288,1.081-.288,1.081s-.192.18-.324.024-.481.372-.481.372l-2.183.1a1.621,1.621,0,0,1,.781,1.787s3.3-.2,3.406-.516A21.081,21.081,0,0,0,872.507,406.26Z" transform="translate(-819.004 -385.386)" opacity="0.03"/>
    <path id="Path_197" data-name="Path 197" d="M777.66,389.76l.575.491,4.737,1-.587-.6Z" transform="translate(-730.5 -366.356)" fill="#fff"/>
    <path id="Path_198" data-name="Path 198" d="M907,348.362a12.1,12.1,0,0,0-.492,1.272c-.157.447-.288.841-.288.841a22.505,22.505,0,0,1-.462,2.35,7.182,7.182,0,0,0-.072,1.763l-.582,3.465a17.281,17.281,0,0,1-.671,2.854,5.2,5.2,0,0,1-.863,1.559c.18-.244,1.162-5.045,1.162-5.045l.324-6.056s.047-.575.1-1.067,1.021-1.163,1.021-1.163l.938-1.334C907.206,347.926,907.143,348.146,907,348.362Z" transform="translate(-851.685 -330.438)" fill="#fff"/>
    <path id="Path_199" data-name="Path 199" d="M885.87,465.933a3.2,3.2,0,0,1-2.051-.864c-.669-.8,1.547-.321,1.547-.321l.576.132Z" transform="translate(-833.003 -440.227)" fill="#ffb0b1"/>
    <path id="Path_200" data-name="Path 200" d="M948.15,373.457a1.751,1.751,0,0,0-.035.8,11.448,11.448,0,0,1-3.119-.3,7.007,7.007,0,0,1-1.091.684l-.431-5.346a31.374,31.374,0,0,1-.384-4.5s.025-.2.06-.494a.057.057,0,0,1,0-.022,22.933,22.933,0,0,1,.425-2.589c.144-.288-.443-1.055-.443-1.055l.267-2.279.032-.275a2.753,2.753,0,0,0,1-1.055l.332-.581h0c.36-.231.379,2.035.379,2.035l-.36,5.351,1.194-.33S948.354,372.773,948.15,373.457Z" transform="translate(-888.832 -338.553)" opacity="0.1"/>
    <path id="Path_201" data-name="Path 201" d="M950.825,351.424c-1.643.816-4.628.06-4.628.06a7,7,0,0,1-1.091.684l-.432-5.346a31.448,31.448,0,0,1-.383-4.5s.347-2.818.491-3.105a.463.463,0,0,0-.028-.344,4.347,4.347,0,0,1-.263-2.011l.115-.98.032-.275a2.756,2.756,0,0,0,1-1.056l.3-.526.553-.969.262-.459.044.04.339.308.36.3c.47.4,1.283,1.094,1.7,1.521.369.376.485,1.839.519,2.939.022.725.009,1.293.009,1.293-.372.612.6,5.526.6,5.526C950.549,345.477,950.825,351.424,950.825,351.424Z" transform="translate(-889.96 -316.151)" fill="#fff"/>
    <path id="Path_202" data-name="Path 202" d="M921.488,363.614s-1.127,2.146-1,2.962.5,1.739.324,1.954a.664.664,0,0,1-.528.264,1.735,1.735,0,0,0-.661.384,6.253,6.253,0,0,0-.841.2,5.235,5.235,0,0,1-.983.264,5.108,5.108,0,0,0-1.247.072,1.6,1.6,0,0,0,.012,1.271,2,2,0,0,0,.671.971c.191.07,1.4-.336,2.386-.432a5.078,5.078,0,0,0,2.051-.875s1.175-.42,1.381-1.127a28.532,28.532,0,0,0-.252-4.592S922.459,363.122,921.488,363.614Z" transform="translate(-863.776 -345.222)" opacity="0.03"/>
    <path id="Path_203" data-name="Path 203" d="M919.115,360.617s-1.127,2.147-1,2.962.5,1.739.323,1.955a.661.661,0,0,1-.527.264,1.736,1.736,0,0,0-.661.384,6.316,6.316,0,0,0-.841.2,5.285,5.285,0,0,1-.983.264,5.1,5.1,0,0,0-1.247.072,1.6,1.6,0,0,0,.012,1.271,2.009,2.009,0,0,0,.671.971c.191.07,1.4-.336,2.386-.431a5.066,5.066,0,0,0,2.051-.876s1.175-.42,1.378-1.127a28.822,28.822,0,0,0-.252-4.593S920.086,360.126,919.115,360.617Z" transform="translate(-861.547 -342.405)" opacity="0.03"/>
    <path id="Path_204" data-name="Path 204" d="M920.916,361.827s-1.127,2.147-1,2.962.5,1.739.324,1.954a.661.661,0,0,1-.528.264,1.744,1.744,0,0,0-.661.383,6.184,6.184,0,0,0-.841.2,5.25,5.25,0,0,1-.983.264,5.11,5.11,0,0,0-1.247.072A1.605,1.605,0,0,0,916,369.2a2.006,2.006,0,0,0,.672.971c.191.07,1.4-.336,2.386-.432a5.078,5.078,0,0,0,2.051-.875s1.175-.42,1.381-1.127a28.568,28.568,0,0,0-.249-4.592S921.887,361.338,920.916,361.827Z" transform="translate(-863.24 -343.544)" fill="#fff"/>
    <path id="Path_205" data-name="Path 205" d="M989.361,458.161s-.9-.18-.587.12.312.563.7.551S989.361,458.161,989.361,458.161Z" transform="translate(-931.709 -434.12)" opacity="0.1"/>
    <path id="Path_206" data-name="Path 206" d="M1023.275,566.58s-.407.276.372.911S1023.275,566.58,1023.275,566.58Z" transform="translate(-964.101 -536.077)" opacity="0.1"/>
    <path id="Path_207" data-name="Path 207" d="M1011.726,604.31c0,.036-.144,1.321.4,1.643S1011.726,604.31,1011.726,604.31Z" transform="translate(-953.329 -571.541)" opacity="0.1"/>
    <path id="Path_208" data-name="Path 208" d="M853.4,436.59c-.435.015-1.374.148-.887,1.056.431.8,1.154.267,1.562-.141A1.535,1.535,0,0,0,853.4,436.59Z" transform="translate(-803.567 -413.895)" fill="#ffb0b1"/>
    <path id="Path_209" data-name="Path 209" d="M881.39,451Z" transform="translate(-830.838 -427.439)" fill="#ffb0b1"/>
    <path id="Path_210" data-name="Path 210" d="M880.74,451.419l.018-.019Z" transform="translate(-830.227 -427.815)" fill="#ffb0b1"/>
    <path id="Path_211" data-name="Path 211" d="M952.427,333.839c-.461.315-.848.581-.924.637a9.08,9.08,0,0,0-.855,1.511c-.2.369-.86.464-1.108.488l.032-.274a2.755,2.755,0,0,0,1-1.056l1.115-1.954.384.349Z" transform="translate(-894.894 -316.705)" opacity="0.1"/>
    <path id="Path_212" data-name="Path 212" d="M952.427,333.239c-.461.315-.848.581-.924.637a9.045,9.045,0,0,0-.855,1.511c-.2.369-.86.464-1.108.488l.032-.274a2.755,2.755,0,0,0,1-1.056l1.115-1.954.384.348S952.21,333.057,952.427,333.239Z" transform="translate(-894.894 -316.141)" fill="#dce7ff"/>
    <path id="Path_213" data-name="Path 213" d="M927.059,290.044a1.781,1.781,0,1,1-1.514-1.761A1.778,1.778,0,0,1,927.059,290.044Z" transform="translate(-870.414 -274.476)" fill="#ffb0b1"/>
    <path id="Path_214" data-name="Path 214" d="M932.193,296.035a1.583,1.583,0,0,1-.575-.617,1.626,1.626,0,0,0-.338-.568,1.5,1.5,0,0,0-.553-.213,1.62,1.62,0,0,1-1.181-1.422,8.433,8.433,0,0,0,.043-.926,1.026,1.026,0,0,0-.2-.478,1.649,1.649,0,0,0-.174-.187c-.084-.079-.172-.156-.249-.24a.932.932,0,0,1-.126-.171.821.821,0,0,1-.069-.159c-.12-.368-.011-.8-.143-1.175l-.007-.02a.382.382,0,0,0-.293-.275c-.141-.01-.262.107-.4.159a.885.885,0,0,1-.82-.267,1.125,1.125,0,0,0-.8-.365,2.579,2.579,0,0,0-.536.232.755.755,0,0,1-.127.037,1.781,1.781,0,0,1,3.434.664,1.762,1.762,0,0,1-.039.372l.01.025c.07.18.148.365.217.525l.339.308.36.3c.47.4,1.283,1.094,1.7,1.521C932.042,293.472,932.158,294.934,932.193,296.035Z" transform="translate(-872.439 -274.476)" opacity="0.1"/>
    <path id="Path_215" data-name="Path 215" d="M919.7,266.854c.086-.175.129-.371.231-.536a1.278,1.278,0,0,1,.684-.487c.706-.243,2.2-.6,2.643,0a1.3,1.3,0,0,0,.282.336,2.081,2.081,0,0,0,.306.138,1.169,1.169,0,0,1,.562.721c.1.3.126.615.2.921a6.772,6.772,0,0,0,.408,1.133,3.121,3.121,0,0,0,.745,1.2c.492.42.6,1.016,1.057,1.477a2.062,2.062,0,0,1,.245,2.169.6.6,0,0,0-.064.293.575.575,0,0,0,.159.271l.3.333a1.662,1.662,0,0,1-1.816-.837,1.625,1.625,0,0,0-.339-.568,1.5,1.5,0,0,0-.552-.213,1.622,1.622,0,0,1-1.181-1.423,8.382,8.382,0,0,0,.043-.925,1.02,1.02,0,0,0-.2-.48c-.165-.216-.414-.36-.549-.6-.228-.4-.055-.924-.219-1.355a.383.383,0,0,0-.292-.275c-.141-.01-.262.107-.4.159a.883.883,0,0,1-.82-.267,1.12,1.12,0,0,0-.8-.364,2.512,2.512,0,0,0-.535.232c-.135.052-.407.1-.525-.016C919.015,267.661,919.591,267.068,919.7,266.854Z" transform="translate(-866.379 -253.084)" fill="#591d4b"/>
    <path id="Path_216" data-name="Path 216" d="M925.594,282.928a1.626,1.626,0,0,0-.339-.567,1.5,1.5,0,0,0-.553-.213,1.622,1.622,0,0,1-1.181-1.422,8.577,8.577,0,0,0,.044-.926,1.028,1.028,0,0,0-.2-.478c-.166-.216-.415-.36-.549-.6-.228-.4-.055-.923-.219-1.355a.385.385,0,0,0-.292-.275c-.141-.011-.262.108-.4.16a.883.883,0,0,1-.82-.267,1.125,1.125,0,0,0-.8-.365,2.561,2.561,0,0,0-.535.232c-.135.052-.408.1-.526-.015-.247-.24.329-.832.432-1.044a5.773,5.773,0,0,1,.232-.536l.017-.027a.952.952,0,0,0-.2.225,5.83,5.83,0,0,0-.231.536c-.1.213-.68.806-.432,1.044.12.114.39.067.525.016a2.471,2.471,0,0,1,.535-.232,1.119,1.119,0,0,1,.8.364.886.886,0,0,0,.82.267c.135-.052.252-.17.4-.159a.382.382,0,0,1,.292.275c.164.431-.009.953.219,1.355.135.236.384.384.549.6a1.022,1.022,0,0,1,.2.48,8.412,8.412,0,0,1-.043.925,1.619,1.619,0,0,0,1.181,1.423,1.505,1.505,0,0,1,.552.213,1.587,1.587,0,0,1,.339.568,1.662,1.662,0,0,0,1.816.837l-.139-.157A1.68,1.68,0,0,1,925.594,282.928Z" transform="translate(-866.176 -262.226)" opacity="0.1"/>
    <path id="Path_217" data-name="Path 217" d="M947.108,348.868a12.14,12.14,0,0,0-.492,1.272c-.176-.068-.336-.505-.336-.505l.938-1.335C947.314,348.432,947.251,348.651,947.108,348.868Z" transform="translate(-891.83 -330.908)" opacity="0.1"/>
    <path id="Path_218" data-name="Path 218" d="M947.708,348.277a12.16,12.16,0,0,0-.492,1.272c-.176-.068-.336-.505-.336-.505l.938-1.334C947.914,347.842,947.851,348.061,947.708,348.277Z" transform="translate(-892.394 -330.353)" fill="#dce7ff"/>
    <path id="Path_219" data-name="Path 219" d="M861.586,430.513l-.52-1.64a.153.153,0,0,1,.1-.193h0a.154.154,0,0,1,.192.1l.52,1.638-.052.343Z" transform="translate(-811.727 -406.453)" fill="#be8b87"/>
    <path id="Path_220" data-name="Path 220" d="M861.5,428.766h0a.154.154,0,0,1,.193.1l.52,1.638-.039.257.038.04.052-.343-.523-1.639a.154.154,0,0,0-.192-.1h0a.154.154,0,0,0-.08.06A.207.207,0,0,1,861.5,428.766Z" transform="translate(-812.114 -406.491)" fill="#fff" opacity="0.1"/>
    <path id="Path_221" data-name="Path 221" d="M822.6,399.233l.292-.092-.043.281-.009.062-.085-.089Z" transform="translate(-772.741 -375.173)" fill="#efc8c4"/>
    <path id="Path_222" data-name="Path 222" d="M872.42,461.692a.061.061,0,0,1,.019-.016.026.026,0,0,1,.028,0,.071.071,0,0,1,.01.016.052.052,0,0,0,.037.025l-.009.06Z" transform="translate(-822.406 -437.47)" fill="#727a9c"/>
    <path id="Path_223" data-name="Path 223" d="M861.13,441.7s1.043-.006.8.438a.938.938,0,0,1-.629.5Z" transform="translate(-811.794 -418.698)" fill="#ffb0b1"/>
    <path id="Path_224" data-name="Path 224" d="M538.315,110.05h-.045a5.138,5.138,0,0,0-4.289,2.348,5.137,5.137,0,0,0-4.289-2.348h-.045a5.105,5.105,0,0,0-5.057,5.1,10.99,10.99,0,0,0,2.158,5.991,37.824,37.824,0,0,0,7.233,6.967,37.788,37.788,0,0,0,7.232-6.967,10.985,10.985,0,0,0,2.158-5.991A5.105,5.105,0,0,0,538.315,110.05Zm-.645,11.379a1.012,1.012,0,0,1-.941-.65h-1.072a.339.339,0,0,1-.319-.231l-.329-.992-1.041,3.639a.337.337,0,0,1-.323.243h-.021a.333.333,0,0,1-.312-.279l-1.073-6.456-.784,3.82a.335.335,0,0,1-.325.254H529.62a.336.336,0,1,1,0-.671h1.245l1.111-5.136a.337.337,0,0,1,.661.028l1.1,6.585.933-3.256a.33.33,0,0,1,.314-.24h.007a.335.335,0,0,1,.318.231l.6,1.79h.816a1.007,1.007,0,1,1,.956,1.321Z" transform="translate(-495.468 -106.968)" fill="#0b3954"/>
  </g>
</svg>
