<svg xmlns="http://www.w3.org/2000/svg" width="36.759" height="36.76" viewBox="0 0 36.759 36.76">
  <g id="undraw_male_avatar_323b" transform="translate(0)">
    <path id="Path_28" data-name="Path 28" d="M298.759,130.379a18.317,18.317,0,0,1-1.48,7.238l-.061.14a18.41,18.41,0,0,1-20.028,10.726l-.331-.061a18.214,18.214,0,0,1-3.325-.98q-.262-.105-.52-.218c-.117-.051-.235-.1-.351-.158a18.381,18.381,0,1,1,26.1-16.686Z" transform="translate(-262 -112)" fill="#0b3954"/>
    <path id="Path_29" data-name="Path 29" d="M405.691,353.069l-.331-.061a75.58,75.58,0,0,0-1.158-10.837,40.209,40.209,0,0,0-1.982-7.209,22.431,22.431,0,0,0-1.037-2.275,11.8,11.8,0,0,0-3.293-4.073l.194-.264a11.372,11.372,0,0,1,2.948,3.376q.392.651.754,1.389.387.79.739,1.676.224.564.433,1.168a42.4,42.4,0,0,1,1.548,5.98q.141.742.269,1.521A77.121,77.121,0,0,1,405.691,353.069Z" transform="translate(-390.501 -316.586)" opacity="0.2"/>
    <path id="Path_30" data-name="Path 30" d="M404.986,603.676c-.117-.051-.235-.1-.351-.158a26.7,26.7,0,0,0-.7-4.219,13.842,13.842,0,0,0-.642-1.914,5.743,5.743,0,0,0-1.729-2.421l.194-.264a6.009,6.009,0,0,1,1.807,2.476,16.985,16.985,0,0,1,1.083,3.816C404.813,601.954,404.919,602.883,404.986,603.676Z" transform="translate(-393.971 -568.452)" opacity="0.2"/>
    <circle id="Ellipse_1" data-name="Ellipse 1" cx="1.636" cy="1.636" r="1.636" transform="translate(3.925 8.749)" opacity="0.2"/>
    <circle id="Ellipse_2" data-name="Ellipse 2" cx="1.636" cy="1.636" r="1.636" transform="translate(4.451 22.833)" opacity="0.2"/>
    <path id="Path_31" data-name="Path 31" d="M482.146,295.114a7.267,7.267,0,0,0,.419,3.73,6.623,6.623,0,0,0,1.256-7.088A7.268,7.268,0,0,0,482.146,295.114Z" transform="translate(-470.09 -281.981)" opacity="0.2"/>
    <path id="Path_32" data-name="Path 32" d="M331.235,397.824a7.3,7.3,0,0,0,3.743.245,6.664,6.664,0,0,0-6.761-2.472A7.3,7.3,0,0,0,331.235,397.824Z" transform="translate(-324.616 -380.044)" opacity="0.2"/>
    <path id="Path_33" data-name="Path 33" d="M341.141,639.351a5.094,5.094,0,0,0,2.625.166,4.642,4.642,0,0,0-4.739-1.733A5.094,5.094,0,0,0,341.141,639.351Z" transform="translate(-334.839 -609.1)" opacity="0.2"/>
    <circle id="Ellipse_3" data-name="Ellipse 3" cx="7.165" cy="7.165" r="7.165" transform="translate(11.176 8.119)" fill="#d0cde1"/>
    <path id="Path_34" data-name="Path 34" d="M547.833,455.026s.9,4.254.9,4.7,4.254,2.463,4.254,2.463l3.807-.672,1.343-4.03s-2.239-3.359-2.239-4.7Z" transform="translate(-532.291 -434.256)" fill="#d0cde1"/>
    <path id="Path_35" data-name="Path 35" d="M415.709,520.859l-.061.14a18.41,18.41,0,0,1-20.028,10.726l-.331-.061a18.215,18.215,0,0,1-3.325-.98q-.262-.105-.52-.218c-.117-.051-.235-.1-.351-.158a18.357,18.357,0,0,1-3-1.755l-.849-2.464.477-.364.982-.75,1.048-.8.272-.208,4.111-3.139.3-.232,2.137-1.631h0s2.311,3.766,5.67,2.646a4.632,4.632,0,0,0,3.285-4.33Z" transform="translate(-380.43 -495.242)" fill="#2f2e41"/>
    <path id="Path_36" data-name="Path 36" d="M455.73,218.016s2.275-4.929,6.635-3.792,6.825,2.844,7.014,4.55a24.344,24.344,0,0,1-.095,4.266s-.474-3.507-3.507-2.749a27.055,27.055,0,0,1-7.773.19l-.758,6.825s-.853-1.232-1.8-.474S452.7,219.533,455.73,218.016Z" transform="translate(-443.602 -208.505)" fill="#2f2e41"/>
    <path id="Path_37" data-name="Path 37" d="M376.154,683.865q-.262-.105-.52-.218c-.117-.051-.235-.1-.351-.158a18.427,18.427,0,0,1-4.763-3.192,6.444,6.444,0,0,1,.909-1.027h3.359l.5,1.693Z" transform="translate(-364.619 -648.424)" fill="#2f2e41"/>
    <path id="Path_38" data-name="Path 38" d="M853.105,576.32l2.881.509a18.376,18.376,0,0,1-3.086,4.816Z" transform="translate(-820.769 -551.072)" fill="#2f2e41"/>
  </g>
</svg>
