<svg xmlns="http://www.w3.org/2000/svg" width="24.265" height="24.266" viewBox="0 0 24.265 24.266">
  <g id="undraw_male_avatar_323b" transform="translate(0)">
    <path id="Path_28" data-name="Path 28" d="M286.265,124.132a12.092,12.092,0,0,1-.977,4.778l-.04.093a12.152,12.152,0,0,1-13.22,7.08l-.218-.04a12.025,12.025,0,0,1-2.195-.647q-.173-.069-.343-.144c-.078-.034-.155-.069-.232-.1a12.133,12.133,0,1,1,17.225-11.015Z" transform="translate(-262 -112)" fill="#0b3954"/>
    <path id="Path_29" data-name="Path 29" d="M403.039,344.667l-.218-.04a49.886,49.886,0,0,0-.765-7.153,26.547,26.547,0,0,0-1.308-4.759,14.809,14.809,0,0,0-.685-1.5,7.788,7.788,0,0,0-2.174-2.689l.128-.174a7.506,7.506,0,0,1,1.946,2.228q.259.43.5.917.256.521.488,1.107.148.373.286.771a27.979,27.979,0,0,1,1.022,3.948q.093.49.177,1A50.89,50.89,0,0,1,403.039,344.667Z" transform="translate(-393.012 -320.584)" opacity="0.2"/>
    <path id="Path_30" data-name="Path 30" d="M403.822,600.625q-.116-.051-.232-.1a17.617,17.617,0,0,0-.465-2.785,9.128,9.128,0,0,0-.424-1.263,3.792,3.792,0,0,0-1.141-1.6l.128-.174a3.966,3.966,0,0,1,1.193,1.635,11.213,11.213,0,0,1,.715,2.519C403.707,599.488,403.778,600.1,403.822,600.625Z" transform="translate(-396.551 -577.374)" opacity="0.2"/>
    <circle id="Ellipse_1" data-name="Ellipse 1" cx="1.08" cy="1.08" r="1.08" transform="translate(2.591 5.775)" opacity="0.2"/>
    <circle id="Ellipse_2" data-name="Ellipse 2" cx="1.08" cy="1.08" r="1.08" transform="translate(2.938 15.072)" opacity="0.2"/>
    <path id="Path_31" data-name="Path 31" d="M482.115,293.973a4.8,4.8,0,0,0,.277,2.462,4.372,4.372,0,0,0,.829-4.679A4.8,4.8,0,0,0,482.115,293.973Z" transform="translate(-474.157 -285.304)" opacity="0.2"/>
    <path id="Path_32" data-name="Path 32" d="M330.209,397.02a4.821,4.821,0,0,0,2.471.161,4.4,4.4,0,0,0-4.463-1.632A4.821,4.821,0,0,0,330.209,397.02Z" transform="translate(-325.84 -385.283)" opacity="0.2"/>
    <path id="Path_33" data-name="Path 33" d="M340.423,638.785a.905.905,0,1,0-1.4-1.034A3.363,3.363,0,0,0,340.423,638.785Z" transform="translate(-336.263 -618.816)" opacity="0.2"/>
    <circle id="Ellipse_3" data-name="Ellipse 3" cx="4.73" cy="4.73" r="4.73" transform="translate(7.378 5.359)" fill="#d0cde1"/>
    <path id="Path_34" data-name="Path 34" d="M547.833,454.265s.591,2.808.591,3.1S551.233,459,551.233,459l2.513-.443.887-2.661s-1.478-2.217-1.478-3.1Z" transform="translate(-537.574 -440.555)" fill="#d0cde1"/>
    <path id="Path_35" data-name="Path 35" d="M406.032,519.643l-.04.093a12.152,12.152,0,0,1-13.22,7.08l-.218-.04a12.034,12.034,0,0,1-2.195-.647q-.173-.07-.343-.144c-.078-.034-.155-.069-.232-.1a12.12,12.12,0,0,1-1.983-1.159l-.561-1.626.315-.24.648-.495.692-.528.18-.137,2.714-2.072.2-.153,1.411-1.077h0s1.526,2.486,3.743,1.747a3.057,3.057,0,0,0,2.169-2.858Z" transform="translate(-382.745 -502.733)" fill="#2f2e41"/>
    <path id="Path_36" data-name="Path 36" d="M455.157,216.67s1.5-3.254,4.38-2.5,4.505,1.877,4.63,3a16.069,16.069,0,0,1-.063,2.816s-.313-2.315-2.315-1.815a17.859,17.859,0,0,1-5.131.125l-.5,4.505s-.563-.813-1.189-.313S453.155,217.671,455.157,216.67Z" transform="translate(-447.152 -210.391)" fill="#2f2e41"/>
    <path id="Path_37" data-name="Path 37" d="M374.239,682.3q-.173-.069-.343-.144c-.077-.034-.155-.068-.232-.1a12.168,12.168,0,0,1-3.144-2.107,4.252,4.252,0,0,1,.6-.678h2.217l.332,1.118Z" transform="translate(-366.625 -658.908)" fill="#2f2e41"/>
    <path id="Path_38" data-name="Path 38" d="M853.035,576.32l1.9.336a12.126,12.126,0,0,1-2.037,3.179Z" transform="translate(-831.69 -559.654)" fill="#2f2e41"/>
  </g>
</svg>
