<svg xmlns="http://www.w3.org/2000/svg" width="18" height="18.001" viewBox="0 0 18 18.001">
  <g id="undraw_male_avatar_323b" transform="translate(0)">
    <path id="Path_28" data-name="Path 28" d="M280,121a8.97,8.97,0,0,1-.725,3.544l-.03.069a9.015,9.015,0,0,1-9.807,5.252l-.162-.03a8.92,8.92,0,0,1-1.628-.48q-.128-.051-.255-.107l-.172-.077A9,9,0,1,1,280,121Z" transform="translate(-262 -112)" fill="#0b3954"/>
    <path id="Path_29" data-name="Path 29" d="M401.71,340.454l-.162-.03a37.011,37.011,0,0,0-.567-5.307,19.692,19.692,0,0,0-.971-3.53,10.983,10.983,0,0,0-.508-1.114,5.777,5.777,0,0,0-1.613-1.994l.095-.129A5.568,5.568,0,0,1,399.429,330q.192.319.369.68.19.387.362.821.11.276.212.572a20.76,20.76,0,0,1,.758,2.928q.069.363.132.745A37.757,37.757,0,0,1,401.71,340.454Z" transform="translate(-394.272 -322.589)" opacity="0.2"/>
    <path id="Path_30" data-name="Path 30" d="M403.238,599.1c-.058-.025-.115-.051-.172-.077a13.071,13.071,0,0,0-.345-2.066,6.779,6.779,0,0,0-.314-.937,2.813,2.813,0,0,0-.846-1.185l.095-.129a2.942,2.942,0,0,1,.885,1.213,8.317,8.317,0,0,1,.53,1.868C403.153,598.252,403.205,598.707,403.238,599.1Z" transform="translate(-397.844 -581.847)" opacity="0.2"/>
    <circle id="Ellipse_1" data-name="Ellipse 1" cx="0.801" cy="0.801" r="0.801" transform="translate(1.922 4.284)" opacity="0.2"/>
    <circle id="Ellipse_2" data-name="Ellipse 2" cx="0.801" cy="0.801" r="0.801" transform="translate(2.18 11.181)" opacity="0.2"/>
    <path id="Path_31" data-name="Path 31" d="M482.1,293.4a3.558,3.558,0,0,0,.205,1.826,3.243,3.243,0,0,0,.615-3.471A3.558,3.558,0,0,0,482.1,293.4Z" transform="translate(-476.196 -286.969)" opacity="0.2"/>
    <path id="Path_32" data-name="Path 32" d="M329.694,396.617a3.576,3.576,0,0,0,1.833.12,3.263,3.263,0,0,0-3.311-1.211A3.576,3.576,0,0,0,329.694,396.617Z" transform="translate(-326.453 -387.91)" opacity="0.2"/>
    <path id="Path_33" data-name="Path 33" d="M340.063,638.5a.672.672,0,1,0-1.035-.767A2.495,2.495,0,0,0,340.063,638.5Z" transform="translate(-336.977 -623.687)" opacity="0.2"/>
    <circle id="Ellipse_3" data-name="Ellipse 3" cx="3.509" cy="3.509" r="3.509" transform="translate(5.473 3.976)" fill="#d0cde1"/>
    <path id="Path_34" data-name="Path 34" d="M547.833,453.884s.439,2.083.439,2.3,2.083,1.206,2.083,1.206l1.864-.329.658-1.974a7.488,7.488,0,0,1-1.1-2.3Z" transform="translate(-540.222 -443.713)" fill="#d0cde1"/>
    <path id="Path_35" data-name="Path 35" d="M401.18,519.033l-.03.069a9.015,9.015,0,0,1-9.807,5.252l-.162-.03a8.928,8.928,0,0,1-1.628-.48q-.128-.052-.255-.107l-.172-.078a8.99,8.99,0,0,1-1.471-.859l-.416-1.207.234-.178.481-.367.513-.392.133-.1,2.013-1.537.149-.113,1.046-.8h0s1.132,1.844,2.776,1.3a2.268,2.268,0,0,0,1.609-2.12Z" transform="translate(-383.905 -506.489)" fill="#2f2e41"/>
    <path id="Path_36" data-name="Path 36" d="M454.87,215.995s1.114-2.414,3.249-1.857,3.342,1.392,3.435,2.228a11.922,11.922,0,0,1-.046,2.089s-.232-1.717-1.717-1.346a13.248,13.248,0,0,1-3.806.093l-.371,3.342s-.418-.6-.882-.232S453.385,216.737,454.87,215.995Z" transform="translate(-448.931 -211.337)" fill="#2f2e41"/>
    <path id="Path_37" data-name="Path 37" d="M373.279,681.52q-.128-.051-.255-.107l-.172-.077a9.025,9.025,0,0,1-2.332-1.563,3.155,3.155,0,0,1,.445-.5h1.645l.247.829Z" transform="translate(-367.63 -664.165)" fill="#2f2e41"/>
    <path id="Path_38" data-name="Path 38" d="M853,576.32l1.411.249a9,9,0,0,1-1.511,2.358Z" transform="translate(-837.166 -563.956)" fill="#2f2e41"/>
  </g>
</svg>
