<svg id="undraw_play_time_7k7b" xmlns="http://www.w3.org/2000/svg" width="59" height="62.659" viewBox="0 0 59 62.659">
  <path id="Path_59" data-name="Path 59" d="M313.741,730.971c-1.356,0-2.649.026-3.834.073a.187.187,0,0,0,0-.029c0-.411-1.412-.786-3.74-1.073,6.856-.372,11.452-1.056,11.452-1.838,0-1.18-10.464-2.136-23.371-2.136s-23.371.956-23.371,2.136c0,.22.364.432,1.04.632-4.027.137-6.92.514-6.92.958,0,.559,4.593,1.013,10.259,1.013,1.814,0,3.517-.047,5-.128-.357.139-.548.285-.548.436,0,.9,6.762,1.629,15.1,1.629,3.465,0,6.658-.126,9.206-.338a48.037,48.037,0,0,0,9.727.69c5.666,0,10.259-.453,10.259-1.013S319.407,730.971,313.741,730.971Z" transform="translate(-265 -670.337)" fill="#3f3d56"/>
  <path id="Path_60" data-name="Path 60" d="M359.192,671.073a7.017,7.017,0,0,0,2.613,3.535,6.041,6.041,0,0,0-2.139-7.906A7.017,7.017,0,0,0,359.192,671.073Z" transform="translate(-350.735 -616.29)" fill="#3f3d56"/>
  <path id="Path_61" data-name="Path 61" d="M328.953,693.3a7.017,7.017,0,0,1,1.818,4,6.041,6.041,0,0,1-5.868-5.713A7.017,7.017,0,0,1,328.953,693.3Z" transform="translate(-319.628 -638.982)" fill="#0b3954"/>
  <path id="Path_62" data-name="Path 62" d="M599.785,181.2s.186.213-.133.626-.061,1.307.544,1.33.9.276.753.61-.321,1.128.338,1.007.868.142.751.344.294-.4.294-.4.367.547.818.164.63-3.856-.289-3.915A23.429,23.429,0,0,0,599.785,181.2Z" transform="translate(-570.057 -173.322)" fill="#2f2e41"/>
  <path id="Path_63" data-name="Path 63" d="M390.505,274.9l.209,1.466h.943l-.314-1.676Z" transform="translate(-356.117 -250.498)" fill="#9f616a"/>
  <path id="Path_64" data-name="Path 64" d="M642.317,377.83s1.257,1.152.943,1.257-1.466,1.362-1.676,1.466c-.187.094-2.2.733-1.885,0a2.755,2.755,0,0,1,1.047-1.152l.21-1.257Z" transform="translate(-606.672 -352.855)" fill="#f2f2f2"/>
  <path id="Path_65" data-name="Path 65" d="M642.317,377.83s1.257,1.152.943,1.257-1.466,1.362-1.676,1.466c-.187.094-2.2.733-1.885,0a2.755,2.755,0,0,1,1.047-1.152l.21-1.257Z" transform="translate(-606.672 -352.855)" opacity="0.1"/>
  <path id="Path_66" data-name="Path 66" d="M404.779,262.406l.21,1.466h.943l-.314-1.676Z" transform="translate(-369.134 -239.108)" fill="#9f616a"/>
  <path id="Path_67" data-name="Path 67" d="M625.047,238.522l1.373-4.539s-2.3-2.095-.733-2.723,1.99,2.514,1.99,2.514l-.524,5.447h-2.095Z" transform="translate(-593.342 -219.116)" fill="#ffb8b8"/>
  <path id="Path_68" data-name="Path 68" d="M637.233,276.725s-2.707,3.472-2.3,3.988a20.311,20.311,0,0,1,1.144,3.658s-.1,1.257.314,1.257,1.466-.21,1.466-.524-.943-4.294-.943-4.294l2.723-3.561Z" transform="translate(-602.322 -260.654)" fill="#0b3954"/>
  <path id="Path_69" data-name="Path 69" d="M649.038,263.918l2.723-1.466s1.885.943,1.362,1.781a28.14,28.14,0,0,1-2.933,3.038s.733,3.561.628,3.666a3.47,3.47,0,0,1-1.571.419c-.314-.1-1.99-4.19-1.571-4.4a13.968,13.968,0,0,0,1.781-2.409Z" transform="translate(-613.917 -247.637)" fill="#0b3954"/>
  <path id="Path_70" data-name="Path 70" d="M557.667,712.385a18.826,18.826,0,0,0,2.095,1.152c.209,0,3.038.733,1.781,1.257s-6.075-.209-5.97-.524,0-2.2.21-2.2S557.667,712.385,557.667,712.385Z" transform="translate(-529.983 -657.664)" fill="#2f2e41"/>
  <path id="Path_71" data-name="Path 71" d="M581.457,729.038a18.826,18.826,0,0,0,2.095,1.152c.209,0,3.038.733,1.781,1.257s-6.075-.209-5.97-.524,0-2.2.209-2.2S581.457,729.038,581.457,729.038Z" transform="translate(-551.678 -672.85)" fill="#2f2e41"/>
  <path id="Path_72" data-name="Path 72" d="M558.088,467.108a14.949,14.949,0,0,0,.838,2.723c.524,1.152-.1,6.6-.419,7.437s-3.352,10.789-2.409,10.893a23.886,23.886,0,0,0,2.828,0l3.038-9.532-.524-12.779Z" transform="translate(-530.299 -433.125)" fill="#575a88"/>
  <path id="Path_73" data-name="Path 73" d="M558.088,467.108a14.949,14.949,0,0,0,.838,2.723c.524,1.152-.1,6.6-.419,7.437s-3.352,10.789-2.409,10.893a23.886,23.886,0,0,0,2.828,0l3.038-9.532-.524-12.779Z" transform="translate(-530.299 -433.125)" opacity="0.1"/>
  <path id="Path_74" data-name="Path 74" d="M572.2,463.737s.419,2.828,1.362,3.457.628,1.257.628,1.257L573.772,474s-4.085,10.055-2.828,11.312a2.634,2.634,0,0,0,2.933.628c.524-.1,1.466-2.3.943-2.933s1.047-4.4,1.466-5.028,0-1.466.524-1.676a3.749,3.749,0,0,0,1.676-2.514c0-.943,1.466-11,.524-11.627s-6.985,1.3-6.985,1.3Z" transform="translate(-543.784 -429.65)" fill="#575a88"/>
  <circle id="Ellipse_5" data-name="Ellipse 5" cx="2.304" cy="2.304" r="2.304" transform="translate(24.123 14.814)" fill="#ffb8b8"/>
  <circle id="Ellipse_6" data-name="Ellipse 6" cx="1.885" cy="1.885" r="1.885" transform="translate(29.779 6.854)" fill="#9f616a"/>
  <path id="Path_75" data-name="Path 75" d="M563.27,288.62s1.257,2.3,1.885,2.3-2.514,2.409-2.514,2.409a24.524,24.524,0,0,0-1.257-3.142C561.175,290.086,563.27,288.62,563.27,288.62Z" transform="translate(-535.272 -271.501)" fill="#ffb8b8"/>
  <path id="Path_76" data-name="Path 76" d="M552.859,305.9s-2.723.943-2.619,1.257-.733,1.047-.733,1.362a11.087,11.087,0,0,0,1.047,5.447c1.257,2.3,3.247,3.98,2.3,5.028s-2.409,2.828-.838,2.828,4.085-2.3,6.389-1.466,1.781-2.3,1.781-2.3.314-2.409-.314-3.142a32.09,32.09,0,0,1-2.828-6.6c0-.628-2.095-3.038-2.619-3.038A4.719,4.719,0,0,0,552.859,305.9Z" transform="translate(-524.441 -286.687)" fill="#8985a8"/>
  <path id="Path_77" data-name="Path 77" d="M624.579,206.546" transform="translate(-592.915 -196.655)" fill="none" stroke="#2f2e41" stroke-miterlimit="10" stroke-width="1"/>
  <path id="Path_78" data-name="Path 78" d="M630.526,194.614a17.888,17.888,0,0,1,.9,1.911c.045.289,1.511-1.911,1.511-1.911l-1.676-1.152Z" transform="translate(-598.338 -184.723)" fill="#9f616a"/>
  <path id="Path_79" data-name="Path 79" d="M631.684,201.295l1.781-1.885,2.095.943s1.954,4.295,2.077,4.609-3.124,1.781-3.438,1.781-2.514-3.247-2.514-3.247S631.161,201.923,631.684,201.295Z" transform="translate(-599.182 -190.147)" fill="#f2f2f2"/>
  <path id="Path_80" data-name="Path 80" d="M359.579,155.145v1.885h1.257l-.413-1.885Z" transform="translate(-327.915 -141.483)" fill="#9f616a"/>
  <path id="Path_81" data-name="Path 81" d="M624.694,265.424a.781.781,0,0,0-.738.5c-.082.221-.054.454.335.551.838.21.943,0,.943,0s1.455-.209,1.146-.628-1.146-.419-1.146-.419Z" transform="translate(-592.312 -250.348)" fill="#9f616a"/>
  <path id="Path_82" data-name="Path 82" d="M656.59,368.314s1.257,1.152.943,1.257-1.466,1.362-1.676,1.466c-.187.094-2.2.733-1.885,0a2.755,2.755,0,0,1,1.047-1.152l.209-1.257Z" transform="translate(-619.689 -344.178)" fill="#f2f2f2"/>
  <path id="Path_83" data-name="Path 83" d="M527.113,261.384c.144-.085.314-.19.319-.357a.316.316,0,0,0-.207-.277.927.927,0,0,0-.362-.049.471.471,0,0,0-.14.014c-.119.037-.188.158-.282.24a1.178,1.178,0,0,1-.5.2,3.274,3.274,0,0,0-.838.347.393.393,0,0,0-.133.109.535.535,0,0,0-.053.271,2.715,2.715,0,0,1-.4.983,1.077,1.077,0,0,0-.077,1.019,3.468,3.468,0,0,1,.207.294c.132.276-.033.615.063.906a.792.792,0,0,0,.2.3,1.594,1.594,0,0,0,.66.4c.238.073.533.122.627.353a1.878,1.878,0,0,0,.088.307.486.486,0,0,0,.344.173,1.472,1.472,0,0,0,.446.032.553.553,0,0,0,.385-.206,1.121,1.121,0,0,1,.156-.23c.152-.127.382-.027.577-.06a.422.422,0,0,0,.331-.31.587.587,0,0,1,.067-.237c.121-.155.439-.046.519-.225.052-.117-.057-.24-.162-.312a4.6,4.6,0,0,1-.516-.35.6.6,0,0,1-.219-.553c.072-.3.469-.471.482-.783a.561.561,0,0,0-.265-.442,4.083,4.083,0,0,1-.439-.307c-.094-.091-.165-.205-.267-.287a1.252,1.252,0,0,0-.672-.19c-.126-.013-.629-.071-.609-.263C526.462,261.735,526.985,261.459,527.113,261.384Z" transform="translate(-501.506 -246.04)" fill="#2f2e41"/>
  <path id="Path_84" data-name="Path 84" d="M619.752,219.63s-1.152.419-1.152.943-.524,2.2,0,2.2a6.408,6.408,0,0,0,1.571-.4Z" transform="translate(-587.25 -208.587)" fill="#f2f2f2"/>
  <path id="Path_85" data-name="Path 85" d="M622.324,219.579s3.038-1.047,3.142-1.047,1.571-.838,1.466-1.152l-.419-2.619s-1.676-3.457-.524-3.457,1.781,2.723,1.781,2.723,2.514,4.714,1.152,5.761-7.018,2.933-7.332,2.619S622.324,219.579,622.324,219.579Z" transform="translate(-590.136 -200.994)" fill="#ffb8b8"/>
  <path id="Path_86" data-name="Path 86" d="M649.666,215.96l.707.681-.917.89s-1.257-.524-1.152-.21.733,1.257,1.152,1.257,2.6-1.362,2.609-1.781-1.352-1.885-1.666-1.99S649.666,215.96,649.666,215.96Z" transform="translate(-614.545 -204.184)" fill="#9f616a"/>
  <path id="Path_87" data-name="Path 87" d="M648.735,206.107a12.7,12.7,0,0,0,1.748,1.359c.209,0,.59-2.041.59-2.041s-1.242-.809-1.7-.588S648.735,206.107,648.735,206.107Z" transform="translate(-614.943 -195.061)" fill="#f2f2f2"/>
  <path id="Path_88" data-name="Path 88" d="M587.706,304.36s0-1.466,3.142-1.466h1.362l-.628,3.457-2.095.628Z" transform="translate(-559.288 -284.518)" fill="#8985a8"/>
  <path id="Path_89" data-name="Path 89" d="M606.908,164.716a8.13,8.13,0,0,1-.921-.057,2.572,2.572,0,0,0-.877-1.249,3.316,3.316,0,0,0-.881-.484c-.7-.3-1.86-.112-1.928.226a1.555,1.555,0,0,0-1.026,1.809c.213.451.692.251,1.1.047a.8.8,0,0,0,.7.618c.671.025,1,.306.834.676s-.356,1.249.374,1.116.961.157.832.381.326-.444.326-.444.407.606.907.182a.379.379,0,0,0,.1-.178.751.751,0,0,0,.521.091c.6-.268.227-.9.227-.9s.8-.123.541-.1-.42-.313.015-.915S607.311,164.729,606.908,164.716Z" transform="translate(-571.626 -156.741)" fill="#2f2e41"/>
  <rect id="Rectangle_17" data-name="Rectangle 17" width="0.314" height="0.943" transform="matrix(0.949, 0.316, -0.316, 0.949, 30.931, 7.404)" fill="#0b3954"/>
  <path id="Path_90" data-name="Path 90" d="M332.5,331.861c-4.075.019-7.392.079-7.392.079s3.943-5.223,7.377-3.288a46.9,46.9,0,0,0,7.38,3.22S336.578,331.842,332.5,331.861Z" transform="translate(-319.817 -307.616)" fill="#f2f2f2"/>
  <path id="Path_91" data-name="Path 91" d="M665.5,97.861c-4.075.019-7.392.079-7.392.079s3.943-5.223,7.377-3.288a46.9,46.9,0,0,0,7.38,3.22S669.578,97.842,665.5,97.861Z" transform="translate(-623.493 -94.222)" fill="#f2f2f2"/>
  <path id="Path_92" data-name="Path 92" d="M742.672,348.861c4.075.019,7.392.079,7.392.079s-3.943-5.223-7.377-3.288a46.9,46.9,0,0,1-7.38,3.22S738.6,348.842,742.672,348.861Z" transform="translate(-693.892 -323.119)" fill="#f2f2f2"/>
</svg>
